<?xml version="1.0" encoding="UTF-8" ?>
<!DOCTYPE svg PUBLIC "-//W3C//DTD SVG 1.1//EN" "http://www.w3.org/Graphics/SVG/1.1/DTD/svg11.dtd">
<svg width="512pt" height="512pt" viewBox="0 0 512 512" version="1.1" xmlns="http://www.w3.org/2000/svg">
<g id="#000000ff">
<path fill="#db3100" opacity="1.00" d=" M 320.32 0.00 L 327.61 0.00 C 360.86 0.73 393.95 10.19 422.24 27.75 C 450.23 45.03 473.66 69.67 489.34 98.60 C 503.83 125.10 511.44 155.16 512.00 185.32 L 512.00 190.69 C 511.51 225.49 501.38 260.16 482.50 289.44 C 462.32 321.00 432.62 346.42 398.18 361.21 C 373.92 371.68 347.41 376.80 321.00 376.42 C 277.61 376.00 234.63 359.82 201.73 331.53 C 189.65 343.56 177.58 355.59 165.59 367.70 C 172.84 380.76 174.62 396.75 170.16 411.03 C 167.49 420.01 162.35 428.16 155.70 434.73 C 137.88 452.57 120.04 470.39 102.21 488.22 C 96.67 493.70 91.37 499.60 84.64 503.67 C 76.58 508.79 67.13 511.43 57.64 512.00 L 53.47 512.00 C 39.13 511.41 25.10 505.20 15.28 494.70 C 5.97 485.08 0.59 471.97 0.00 458.63 L 0.00 454.38 C 0.53 444.63 3.38 434.96 8.72 426.74 C 11.87 421.71 16.07 417.46 20.27 413.31 C 37.29 396.32 54.28 379.30 71.29 362.30 C 75.98 357.68 80.44 352.74 85.94 349.03 C 102.84 337.18 126.42 336.20 144.35 346.38 C 156.44 334.40 168.46 322.34 180.48 310.28 C 159.30 285.46 144.75 255.05 138.85 222.95 C 131.95 186.21 136.24 147.44 151.17 113.16 C 166.00 78.76 191.54 49.17 223.15 29.12 C 252.04 10.67 286.09 0.69 320.32 0.00 M 307.61 30.83 C 281.74 33.43 256.54 42.51 235.06 57.19 C 209.00 74.88 188.28 100.43 176.75 129.78 C 164.88 159.56 162.45 192.98 169.73 224.19 C 176.60 254.16 192.55 281.93 214.90 303.03 C 236.88 323.98 265.01 338.43 294.91 343.83 C 325.83 349.51 358.44 345.90 387.24 333.25 C 407.75 324.29 426.23 310.82 441.23 294.22 C 466.96 266.02 481.73 228.19 481.96 190.02 C 482.34 161.09 474.66 132.08 459.75 107.28 C 442.38 78.18 415.51 54.77 384.13 41.90 C 360.07 31.91 333.51 28.24 307.61 30.83 Z" />
<path fill="#db3100" opacity="1.00" d=" M 309.50 60.80 C 336.51 57.80 364.49 63.43 387.98 77.18 C 412.75 91.55 432.56 114.37 443.05 141.04 C 453.84 168.25 454.86 199.17 446.01 227.05 C 437.94 252.81 421.32 275.70 399.59 291.66 C 376.85 308.57 348.32 317.33 320.02 316.40 C 290.03 315.64 260.48 303.89 238.24 283.75 C 218.02 265.72 203.70 241.14 198.30 214.56 C 192.70 187.54 195.88 158.71 207.66 133.73 C 220.32 106.65 242.81 84.34 269.93 71.81 C 282.41 66.04 295.83 62.28 309.50 60.80 M 275.88 147.92 C 273.27 153.54 274.73 160.61 279.19 164.87 C 286.97 172.66 294.77 180.43 302.55 188.23 C 294.84 195.98 287.09 203.69 279.36 211.42 C 271.95 217.90 273.54 231.29 282.46 235.61 C 288.02 238.74 295.46 237.65 300.00 233.19 C 307.98 225.33 315.83 217.34 323.78 209.46 C 331.60 217.27 339.41 225.09 347.22 232.90 C 350.77 236.44 356.09 238.20 361.02 237.09 C 365.90 236.15 370.16 232.58 371.89 227.92 C 374.15 222.42 372.63 215.75 368.38 211.63 C 360.60 203.82 352.81 196.03 344.99 188.25 C 352.85 180.35 360.78 172.51 368.62 164.58 C 372.78 160.38 374.15 153.65 371.75 148.21 C 368.31 138.85 354.94 136.02 347.88 142.96 C 339.78 150.92 331.83 159.02 323.77 167.01 C 316.64 159.87 309.49 152.74 302.37 145.60 C 300.04 143.17 297.48 140.77 294.18 139.79 C 287.18 137.35 278.72 141.04 275.88 147.92 Z" />
</g>
</svg>
