<?xml version="1.0" encoding="UTF-8" standalone="no"?>
<svg
   width="512pt"
   height="512pt"
   viewBox="0 0 512 512"
   version="1.1"
   id="svg6"
   sodipodi:docname="iconjose.svg"
   inkscape:version="1.3.2 (091e20e, 2023-11-25, custom)"
   xmlns:inkscape="http://www.inkscape.org/namespaces/inkscape"
   xmlns:sodipodi="http://sodipodi.sourceforge.net/DTD/sodipodi-0.dtd"
   xmlns="http://www.w3.org/2000/svg"
   xmlns:svg="http://www.w3.org/2000/svg">
  <defs
     id="defs6" />
  <sodipodi:namedview
     id="namedview6"
     pagecolor="#ffffff"
     bordercolor="#000000"
     borderopacity="0.25"
     inkscape:showpageshadow="2"
     inkscape:pageopacity="0.0"
     inkscape:pagecheckerboard="0"
     inkscape:deskcolor="#d1d1d1"
     inkscape:document-units="pt"
     inkscape:zoom="0.80481734"
     inkscape:cx="245.3973"
     inkscape:cy="332.37356"
     inkscape:window-width="1920"
     inkscape:window-height="991"
     inkscape:window-x="-9"
     inkscape:window-y="-9"
     inkscape:window-maximized="1"
     inkscape:current-layer="#000000ff" />
  <g
     id="#000000ff"
     style="display:inline">
    <rect
       style="display:inline;fill:#00000c;fill-opacity:1;fill-rule:nonzero;stroke-width:0.749691"
       id="rect6"
       width="511.91763"
       height="512.9787"
       x="1.6551222e-07"
       y="-1.3178892" />
    <path
       fill="#000000"
       opacity="1"
       d="m 74.36,111.41 c 120.56,-0.16 241.12,-0.07 361.68,-0.05 20.18,-0.31 39.69,12.43 47.58,30.99 3.18,7.09 4.5,14.91 4.38,22.66 -0.02,71.68 0.04,143.36 -0.03,215.03 0.08,20.23 -12.99,39.63 -31.69,47.27 -6.4,2.71 -13.35,4.01 -20.29,4.02 -116.32,0.01 -232.64,0 -348.96,0 C 78.33,431.27 69.4,431.92 61,429.14 39.67,423.17 23.83,402.16 24.03,380 23.97,308.01 24.01,236.03 24.01,164.05 c -0.23,-12.99 4.57,-25.99 13.35,-35.58 9.33,-10.41 23.01,-16.78 37,-17.06 m -1,32.1 c -9.61,0.9 -17.56,9.83 -17.35,19.48 -0.01,72.35 -0.03,144.69 0.01,217.04 -0.07,10.13 8.89,19.25 19.04,19.28 120.33,0.05 240.66,0 360.98,0.03 8.05,0.23 15.84,-5.06 18.64,-12.6 1.52,-3.71 1.33,-7.79 1.33,-11.71 -0.03,-70.69 0.02,-141.38 -0.03,-212.07 0.25,-10.59 -9.33,-19.99 -19.9,-19.61 -85.71,-0.04 -171.41,0 -257.11,-0.02 -35.2,0.12 -70.42,-0.23 -105.61,0.18 z"
       id="path1"
       style="fill:#a5a5a5;fill-opacity:1;fill-rule:nonzero" />
    <path
       fill="#000000"
       opacity="1"
       d="m 82.29,160.41 c 8.37,-3.49 18.67,1.77 21.05,10.44 2.85,8.66 -3.35,18.7 -12.3,20.2 -8.44,1.89 -17.5,-4.44 -18.8,-12.95 -1.43,-7.32 3.06,-15.15 10.05,-17.69 z"
       id="path2"
       style="fill:#00aadb;fill-opacity:1" />
    <path
       fill="#000000"
       opacity="1"
       d="m 130.29,160.41 c 8.84,-3.73 19.72,2.44 21.39,11.8 1.92,8.37 -4.19,17.39 -12.62,18.84 -8.44,1.9 -17.51,-4.43 -18.82,-12.93 -1.44,-7.33 3.06,-15.16 10.05,-17.71 z"
       id="path3"
       style="fill:#a5a5a5;fill-opacity:1" />
    <path
       fill="#000000"
       opacity="1"
       d="m 339.06846,229.47186 c 4.83184,-1.04774 10.26399,1.08069 12.6433,5.01466 1.74238,2.70171 2.10843,6.09534 0.92975,9.04087 -11.62567,29.6728 -23.266,59.33901 -34.89901,89.0118 -1.67649,4.98171 -7.78217,8.32262 -13.46323,7.17604 -7.06473,-1.02797 -11.56711,-8.57302 -8.59481,-14.4509 11.58176,-29.50807 23.14888,-59.02272 34.71599,-88.54396 1.20063,-3.59131 4.6122,-6.41164 8.66801,-7.24851 z"
       id="path4"
       style="fill:#a5a5a5;fill-opacity:1;stroke-width:0.694564" />
    <path
       fill="#000000"
       opacity="1"
       d="m 118.17152,345.87838 c 3.44,3.7 8.63,5.55 13.64,4.88 7.3,-0.7 13.5,-7.15 13.96,-14.46 0.56,-4.82 -1.54,-9.66 -5.02,-12.96 -12.12,-12.11 -24.21,-24.25 -36.37,-36.32 12.26,-12.49 24.79,-24.7 37.06,-37.17 5.2,-5.37 5.7,-14.48 1.19,-20.41 -3.71,-5.16 -10.67,-7.75 -16.82,-6.03 -3.33,0.79 -6.15,2.9 -8.47,5.34 -15.63,15.69 -31.289999,31.34 -46.949999,47 -5.92,5.76 -6.05,16.26 -0.2,22.11 15.95,16.05 31.979999,32.02 47.979999,48.02 z"
       id="path5"
       style="fill:#a5a5a5;fill-opacity:1" />
    <path
       fill="#000000"
       opacity="1"
       d="m 370.50254,341.87194 c 5.83,5.97 16.42,5.93 22.26,-0.01 16,-16.01 31.99,-32.03 47.94,-48.09 6.21,-5.78 6.4,-16.55 0.38,-22.53 -15.27,-15.38 -30.65,-30.64 -45.94,-45.99 -2.85,-3.06 -6.22,-5.95 -10.48,-6.67 -7.76,-1.74 -16.17,3.42 -18.34,11.03 -1.7,5.66 -0.13,12.19 4.23,16.25 12.16,12.08 24.16,24.33 36.42,36.31 -12.17,12.73 -24.89,24.95 -37.23,37.52 -5.71,6.02 -5.38,16.58 0.76,22.18 z"
       id="path6"
       style="fill:#a5a5a5;fill-opacity:1" />
  </g>
  <text
     xml:space="preserve"
     style="font-size:171.03px;font-family:'changa one';-inkscape-font-specification:'changa one';fill:#00aadb;stroke-width:1.28273;fill-opacity:1"
     x="159.60165"
     y="330.92465"
     id="text6"
     transform="scale(0.96735692,1.0337446)"><tspan
       sodipodi:role="line"
       id="tspan6"
       style="stroke-width:1.28273;fill:#00aadb;fill-opacity:1"
       x="159.60165"
       y="330.92465">JL</tspan></text>
</svg>
