<?xml version="1.0" encoding="UTF-8" ?>
<!DOCTYPE svg PUBLIC "-//W3C//DTD SVG 1.1//EN" "http://www.w3.org/Graphics/SVG/1.1/DTD/svg11.dtd">
<svg width="512pt" height="512pt" viewBox="0 0 512 512" version="1.1" xmlns="http://www.w3.org/2000/svg">
<g id="#000000ff">
<path fill="#00aadb" opacity="1.00" d=" M 9.28 24.29 C 11.89 16.39 18.91 10.17 27.06 8.52 C 30.66 7.81 34.35 8.01 38.00 8.00 C 185.34 8.01 332.69 7.98 480.04 8.02 C 492.86 7.68 504.31 19.20 503.98 32.00 C 504.02 131.35 503.98 230.69 504.00 330.04 C 504.02 335.09 504.28 340.38 502.18 345.11 C 498.67 353.96 489.50 360.12 479.97 359.98 C 454.42 360.02 428.86 359.98 403.31 360.00 C 410.21 366.87 417.08 373.78 423.97 380.65 C 425.98 378.74 428.00 376.38 430.95 376.09 C 433.66 375.64 436.33 376.89 438.17 378.83 C 455.35 395.99 472.50 413.18 489.69 430.33 C 502.56 441.69 507.67 461.04 501.19 477.08 C 496.57 489.36 485.83 499.11 473.13 502.47 C 459.12 506.47 443.23 502.32 432.87 492.10 C 414.81 474.16 396.86 456.11 378.85 438.13 C 376.91 436.30 375.67 433.64 376.11 430.95 C 376.39 427.99 378.75 425.96 380.68 423.98 C 373.77 417.04 366.83 410.13 359.92 403.20 C 329.26 422.77 290.59 428.88 255.37 419.91 C 244.49 430.88 233.53 441.74 222.64 452.70 C 220.93 454.49 218.72 456.03 216.12 455.95 C 205.42 456.08 194.71 455.95 184.00 456.00 C 183.91 464.69 184.18 473.38 183.87 482.07 C 183.16 493.72 172.72 503.72 161.04 503.94 C 129.36 504.09 97.67 503.94 65.99 504.02 C 61.94 504.07 57.80 503.61 54.11 501.85 C 45.69 498.14 39.91 489.26 40.02 480.05 C 40.02 458.35 39.93 436.64 40.06 414.94 C 40.26 402.90 50.89 392.26 62.93 392.06 C 94.29 391.91 125.66 392.06 157.03 391.98 C 161.12 391.92 165.33 392.14 169.12 393.81 C 177.61 397.20 183.70 405.82 183.94 414.97 C 184.09 423.31 183.95 431.66 184.00 440.00 C 193.58 439.99 203.15 440.01 212.73 439.99 C 221.20 431.45 229.72 422.98 238.18 414.44 C 211.36 403.81 188.10 384.48 172.80 360.01 C 125.86 359.98 78.92 360.03 31.98 359.98 C 19.19 360.30 7.69 348.84 8.01 336.04 C 7.98 236.70 8.01 137.35 8.00 38.01 C 8.02 33.42 7.69 28.68 9.28 24.29 M 24.00 33.04 C 24.00 131.70 24.00 230.35 24.00 329.00 C 24.04 331.97 23.79 334.98 24.27 337.94 C 25.11 341.81 29.09 344.34 32.96 344.00 C 76.71 344.00 120.46 344.00 164.21 344.00 C 161.88 338.77 159.82 333.43 158.02 328.00 C 121.31 327.96 84.59 328.07 47.88 327.95 C 43.21 328.06 39.48 323.53 40.00 318.98 C 40.00 244.65 40.00 170.33 40.00 96.00 C 45.33 96.00 50.67 96.00 56.00 96.00 C 56.00 168.00 56.00 240.00 56.00 312.00 C 88.75 312.00 121.50 312.01 154.24 311.99 C 147.76 277.64 155.49 240.98 175.18 212.10 C 172.75 209.39 170.34 206.66 167.91 203.94 C 140.57 233.76 113.25 263.60 85.89 293.39 C 81.96 289.79 78.04 286.19 74.11 282.60 C 102.39 251.72 130.71 220.87 158.98 189.99 C 161.08 187.82 162.94 184.99 166.06 184.26 C 169.00 183.46 172.21 184.62 174.15 186.92 C 177.87 190.99 181.48 195.16 185.17 199.26 C 207.44 173.20 239.89 156.19 274.01 152.72 C 263.91 136.48 253.70 120.31 243.64 104.04 C 234.43 103.95 225.21 104.02 216.00 104.00 C 216.00 110.68 215.99 117.37 216.01 124.05 C 216.07 128.47 215.99 133.04 214.16 137.15 C 210.65 145.98 201.49 152.12 191.97 151.98 C 159.99 152.01 128.00 152.01 96.01 151.98 C 86.79 152.09 77.88 146.32 74.15 137.89 C 72.38 134.19 71.91 130.03 71.98 125.97 C 72.06 104.98 71.91 83.98 72.05 63.00 C 72.23 50.93 82.90 40.26 94.96 40.05 C 127.31 39.93 159.67 40.02 192.02 40.01 C 204.09 39.73 215.17 49.91 215.87 61.96 C 216.17 70.64 215.91 79.32 216.00 88.00 C 226.34 88.01 236.69 87.98 247.03 88.00 C 251.46 87.49 254.72 90.90 256.54 94.52 C 268.53 113.78 280.56 133.01 292.60 152.24 C 304.22 152.64 315.77 154.53 326.94 157.75 C 342.20 142.51 357.44 127.25 372.71 112.00 C 365.81 111.99 358.90 112.00 352.00 112.00 C 352.00 106.67 352.00 101.33 352.00 96.00 C 365.37 96.03 378.74 95.93 392.11 96.04 C 396.30 95.95 400.04 99.70 399.95 103.89 C 400.07 117.26 399.96 130.63 400.00 144.00 C 394.66 144.00 389.33 144.00 384.00 144.00 C 383.99 137.10 384.01 130.21 383.99 123.31 C 370.48 136.86 356.92 150.36 343.42 163.91 C 360.88 171.73 376.73 183.16 389.46 197.45 C 407.75 217.81 419.59 243.84 422.93 271.00 C 426.07 295.75 422.10 321.29 411.80 343.99 C 434.55 343.97 457.30 344.06 480.05 343.96 C 484.69 344.09 488.47 339.63 488.00 335.09 C 488.00 234.38 488.00 133.67 488.00 32.96 C 488.57 27.94 484.03 23.40 479.01 24.00 C 330.34 24.00 181.66 24.00 32.99 24.00 C 27.93 23.40 23.37 27.99 24.00 33.04 M 93.35 56.46 C 89.83 57.60 87.70 61.32 88.00 64.93 C 88.03 85.99 87.94 107.05 88.05 128.10 C 87.95 132.31 91.73 136.06 95.93 135.95 C 126.95 136.08 157.98 135.94 189.00 136.02 C 191.34 135.96 193.87 136.19 195.96 134.92 C 198.76 133.41 200.20 130.16 200.00 127.05 C 199.97 106.01 200.06 84.97 199.95 63.93 C 200.06 59.70 196.28 55.92 192.05 56.04 C 161.03 55.93 130.01 56.06 98.99 55.98 C 97.11 56.02 95.17 55.89 93.35 56.46 M 274.55 168.76 C 246.61 171.83 219.93 185.15 200.70 205.67 C 181.49 225.93 169.74 253.09 168.21 280.98 C 166.45 309.73 175.53 338.98 193.34 361.63 C 211.11 384.57 237.44 400.71 266.00 405.93 C 292.10 410.88 319.79 406.78 343.33 394.46 C 366.19 382.66 385.01 363.26 396.10 340.05 C 408.52 314.46 411.34 284.40 403.89 256.96 C 396.78 230.05 379.91 205.89 357.13 189.92 C 333.42 173.08 303.43 165.42 274.55 168.76 M 373.18 393.86 C 379.45 400.14 385.72 406.41 392.00 412.68 C 398.90 405.79 405.80 398.89 412.69 391.99 C 406.41 385.73 400.14 379.44 393.86 373.18 C 387.68 380.75 380.75 387.69 373.18 393.86 M 395.32 432.00 C 411.43 448.10 427.53 464.22 443.64 480.31 C 447.45 484.19 452.46 486.91 457.85 487.80 C 467.92 489.69 478.79 484.84 484.16 476.12 C 489.01 468.59 489.50 458.53 485.40 450.57 C 483.32 446.23 479.68 442.99 476.35 439.65 C 461.56 424.87 446.78 410.09 432.00 395.32 C 419.77 407.54 407.54 419.77 395.32 432.00 M 61.33 408.47 C 57.82 409.61 55.70 413.32 56.00 416.93 C 56.03 437.98 55.94 459.03 56.05 480.08 C 55.90 484.72 60.39 488.46 64.91 488.00 C 96.29 488.00 127.67 488.00 159.04 488.00 C 163.55 488.47 168.03 484.79 167.95 480.17 C 168.07 459.11 167.96 438.05 168.00 416.99 C 168.50 412.44 164.76 407.91 160.09 408.04 C 128.72 407.93 97.35 408.06 65.98 407.98 C 64.43 408.02 62.83 407.97 61.33 408.47 Z" />
<path fill="#00aadb" opacity="1.00" d=" M 104.00 72.00 C 130.67 72.00 157.33 72.00 184.00 72.00 C 184.00 77.33 184.00 82.67 184.00 88.00 C 157.33 88.00 130.67 88.00 104.00 88.00 C 104.00 82.67 104.00 77.33 104.00 72.00 Z" />
<path fill="#00aadb" opacity="1.00" d=" M 104.00 104.00 C 130.67 104.00 157.33 104.00 184.00 104.00 C 184.00 109.33 184.00 114.67 184.00 120.00 C 157.33 120.00 130.67 120.00 104.00 120.00 C 104.00 114.67 104.00 109.33 104.00 104.00 Z" />
<path fill="#00aadb" opacity="1.00" d=" M 275.53 184.79 C 299.90 181.75 325.26 187.76 345.62 201.49 C 366.12 215.10 381.52 236.20 388.11 259.92 C 395.12 284.62 392.45 311.88 380.83 334.77 C 369.49 357.45 349.53 375.64 325.89 384.81 C 303.46 393.67 277.92 394.30 255.07 386.58 C 230.69 378.57 209.65 361.08 197.21 338.65 C 184.63 316.25 180.81 289.09 186.82 264.10 C 192.52 239.67 207.43 217.54 227.97 203.13 C 241.98 193.21 258.48 186.82 275.53 184.79 M 217.47 235.62 C 222.44 241.18 227.38 246.77 232.35 252.34 C 249.73 234.95 267.14 217.60 284.48 200.17 C 258.30 201.10 232.96 214.50 217.47 235.62 M 237.62 269.64 C 234.50 272.93 228.72 272.67 225.89 269.14 C 220.15 262.76 214.48 256.32 208.78 249.91 C 199.41 269.01 197.48 291.54 203.36 311.98 C 236.91 312.03 270.45 311.98 304.00 312.00 C 304.00 317.33 304.00 322.67 304.00 328.00 C 272.57 328.01 241.15 327.99 209.72 328.01 C 218.63 345.42 233.46 359.76 251.28 367.88 C 269.73 376.46 291.21 378.31 310.85 372.97 C 330.74 367.69 348.56 355.10 360.26 338.18 C 371.64 321.93 377.17 301.73 375.77 281.95 C 374.47 261.89 365.93 242.43 352.17 227.80 C 339.87 214.54 323.35 205.50 305.71 201.72 C 282.89 224.23 260.39 247.08 237.62 269.64 Z" />
<path fill="#00aadb" opacity="1.00" d=" M 72.00 424.00 C 98.67 424.00 125.33 424.00 152.00 424.00 C 152.00 429.33 152.00 434.66 152.00 440.00 C 125.33 440.00 98.67 440.00 72.00 440.00 C 72.00 434.66 72.00 429.33 72.00 424.00 Z" />
<path fill="#00aadb" opacity="1.00" d=" M 72.00 456.00 C 98.67 456.00 125.33 456.00 152.00 456.00 C 152.00 461.33 152.00 466.66 152.00 472.00 C 125.33 472.00 98.67 472.00 72.00 472.00 C 72.00 466.66 72.00 461.33 72.00 456.00 Z" />
</g>
</svg>
