<?xml version="1.0" encoding="UTF-8" ?>
<!DOCTYPE svg PUBLIC "-//W3C//DTD SVG 1.1//EN" "http://www.w3.org/Graphics/SVG/1.1/DTD/svg11.dtd">
<svg width="512pt" height="512pt" viewBox="0 0 512 512" version="1.1" xmlns="http://www.w3.org/2000/svg">
<g id="#00aadbff">
<path fill="#00aadb" opacity="1.00" d=" M 59.38 10.43 C 68.45 6.71 78.44 7.95 87.99 7.73 C 150.99 7.43 214.00 7.45 277.00 7.82 C 288.86 8.17 300.44 13.87 307.87 23.12 C 314.03 30.60 317.32 40.29 317.27 49.96 C 317.28 83.18 317.33 116.40 317.25 149.61 C 350.90 108.81 384.78 68.19 418.53 27.46 C 426.91 16.85 443.74 15.66 454.26 23.71 C 461.74 30.17 465.91 40.80 463.40 50.56 C 462.32 55.11 459.37 58.84 456.68 62.55 C 426.26 104.85 395.91 147.21 365.46 189.49 C 363.89 191.54 363.75 194.27 362.38 196.42 C 360.84 198.18 358.51 199.09 357.17 201.05 C 343.84 219.70 330.38 238.25 317.09 256.93 C 317.66 258.91 318.11 260.94 318.08 263.01 C 318.04 326.34 318.07 389.68 318.06 453.01 C 317.99 458.86 318.41 464.76 317.32 470.55 C 313.77 489.75 295.64 505.23 275.99 504.99 C 208.66 505.00 141.33 505.03 74.01 504.97 C 54.79 504.88 37.15 489.82 33.43 471.08 C 31.79 463.79 33.28 456.27 32.10 448.94 C 31.56 445.98 32.54 443.06 32.57 440.11 C 32.62 309.75 32.53 179.40 32.61 49.05 C 32.59 32.31 43.64 16.21 59.38 10.43 M 48.11 49.99 C 48.09 179.68 48.10 309.37 48.10 439.06 C 132.91 439.07 217.72 439.07 302.54 439.06 C 302.60 385.00 302.46 330.93 302.61 276.86 C 297.79 283.92 292.68 290.77 287.72 297.73 C 286.13 300.09 283.98 302.23 283.30 305.07 C 279.95 322.67 270.00 338.21 258.69 351.77 C 238.49 374.56 208.54 386.10 179.07 390.81 C 173.41 391.89 168.89 385.07 170.93 380.04 C 177.48 358.07 180.49 335.28 185.21 312.90 C 186.82 305.35 187.79 297.48 191.67 290.66 C 198.68 275.80 209.01 260.95 224.89 254.79 C 227.38 253.56 230.75 253.83 232.59 251.53 C 255.13 224.33 277.69 197.14 300.27 169.98 C 301.21 168.89 301.98 167.58 301.78 166.08 C 301.75 127.37 301.79 88.66 301.76 49.96 C 301.96 36.20 289.83 23.62 276.08 23.32 C 264.23 23.19 252.38 23.30 240.53 23.27 C 240.92 31.95 238.49 40.95 232.51 47.44 C 226.91 53.80 218.48 57.48 210.01 57.39 C 186.35 57.39 162.70 57.44 139.04 57.37 C 129.47 57.32 120.05 52.45 114.67 44.51 C 110.29 38.37 109.05 30.66 109.35 23.26 C 96.88 23.35 84.40 23.12 71.94 23.37 C 58.51 24.01 47.59 36.71 48.11 49.99 M 124.86 23.46 C 124.94 26.28 124.72 29.23 125.81 31.89 C 127.94 37.63 133.74 41.96 139.93 41.87 C 163.30 41.87 186.67 41.87 210.04 41.86 C 214.41 41.97 218.75 39.97 221.44 36.51 C 224.52 32.90 225.13 28.01 224.99 23.44 C 191.61 23.49 158.24 23.45 124.86 23.46 M 431.34 36.49 C 428.73 39.14 426.55 42.17 424.12 44.98 C 399.92 74.24 375.49 103.33 351.41 132.70 C 354.19 145.46 356.97 158.23 359.68 171.01 C 388.53 130.79 417.43 90.60 446.31 50.40 C 449.93 46.08 448.69 39.04 444.39 35.67 C 440.48 33.22 434.72 33.01 431.34 36.49 M 250.21 254.35 C 263.35 258.56 275.62 267.47 280.97 280.56 C 303.03 249.74 325.29 219.05 347.25 188.15 C 344.34 174.76 341.41 161.37 338.58 147.96 C 309.18 183.47 279.68 218.90 250.21 254.35 M 228.31 271.32 C 218.80 276.68 212.65 286.24 207.76 295.70 C 203.71 302.80 203.06 311.09 201.19 318.90 C 197.00 336.94 194.48 355.35 189.30 373.16 C 207.27 368.49 225.07 361.47 239.49 349.49 C 248.37 342.26 255.07 332.78 260.83 322.98 C 266.30 313.40 270.68 302.35 268.77 291.14 C 267.34 283.32 261.38 277.40 255.02 273.14 C 247.19 268.20 236.62 266.58 228.31 271.32 M 48.11 454.60 C 48.21 459.73 47.60 464.99 49.12 469.98 C 51.65 478.62 58.74 485.74 67.33 488.40 C 72.75 490.07 78.48 489.40 84.05 489.53 C 145.71 489.54 207.36 489.53 269.02 489.54 C 273.25 489.49 277.55 489.80 281.71 488.83 C 291.03 486.62 298.84 479.11 301.54 469.94 C 303.02 464.96 302.46 459.71 302.53 454.60 C 217.72 454.61 132.91 454.59 48.11 454.60 Z" />
<path fill="#00aadb" opacity="1.00" d=" M 120.20 110.33 C 123.13 109.98 126.08 110.15 129.01 110.13 C 161.70 110.14 194.38 110.12 227.07 110.14 C 229.64 110.09 232.49 110.65 234.15 112.81 C 235.82 114.78 235.84 117.49 235.85 119.93 C 235.80 139.64 235.85 159.35 235.83 179.06 C 235.85 181.41 235.42 183.97 233.62 185.65 C 231.65 187.66 228.68 187.78 226.05 187.75 C 191.33 187.68 156.61 187.79 121.90 187.70 C 117.63 188.04 113.77 184.33 114.07 180.03 C 114.01 159.30 114.01 138.57 114.07 117.84 C 113.90 114.25 116.53 110.70 120.20 110.33 M 129.55 125.67 C 129.55 141.18 129.54 156.69 129.56 172.20 C 159.81 172.20 190.06 172.20 220.31 172.19 C 220.32 156.69 220.32 141.18 220.31 125.67 C 190.06 125.66 159.81 125.66 129.55 125.67 Z" />
<path fill="#00aadb" opacity="1.00" d=" M 465.38 137.62 C 470.17 136.01 475.88 139.68 475.50 144.95 C 475.60 228.65 475.49 312.36 475.56 396.07 C 475.52 398.20 475.54 400.49 474.35 402.36 C 471.61 406.77 464.21 406.85 461.33 402.56 C 460.19 400.95 460.05 398.93 460.02 397.04 C 460.02 315.69 460.02 234.34 460.02 153.00 C 460.06 149.74 459.82 146.46 460.23 143.22 C 460.64 140.54 462.75 138.26 465.38 137.62 Z" />
<path fill="#00aadb" opacity="1.00" d=" M 416.31 208.55 C 421.40 206.13 428.12 210.10 427.42 215.99 C 427.47 276.33 427.43 336.68 427.44 397.03 C 427.90 401.08 425.14 405.35 420.88 405.63 C 416.33 406.53 411.59 402.79 411.97 398.03 C 411.86 337.71 411.97 277.38 411.91 217.05 C 411.64 213.69 412.91 209.83 416.31 208.55 Z" />
<path fill="#00aadb" opacity="1.00" d=" M 107.27 221.35 C 109.18 221.00 111.13 221.06 113.06 221.04 C 142.72 221.14 172.39 220.96 202.05 221.13 C 207.07 220.90 210.58 226.28 209.21 230.91 C 208.55 234.67 204.68 236.89 201.06 236.59 C 170.68 236.60 140.30 236.61 109.92 236.59 C 107.19 236.68 104.24 235.69 102.79 233.23 C 100.16 229.06 102.04 222.27 107.27 221.35 Z" />
<path fill="#00aadb" opacity="1.00" d=" M 107.44 268.64 C 123.26 268.06 139.14 268.59 154.99 268.38 C 158.41 268.40 162.62 267.98 165.02 270.98 C 168.82 275.35 166.24 283.70 160.01 283.82 C 143.31 284.07 126.58 283.88 109.87 283.92 C 106.88 284.05 103.63 282.68 102.40 279.81 C 100.31 275.59 102.44 269.39 107.44 268.64 Z" />
<path fill="#00aadb" opacity="1.00" d=" M 368.44 280.60 C 373.44 278.41 379.92 282.26 379.32 287.99 C 379.36 324.64 379.38 361.31 379.31 397.96 C 379.60 402.08 376.08 405.80 371.96 405.69 C 367.61 406.17 363.53 402.41 363.87 398.00 C 363.77 361.66 363.87 325.31 363.82 288.96 C 363.56 285.59 365.00 281.77 368.44 280.60 Z" />
<path fill="#00aadb" opacity="1.00" d=" M 106.35 315.47 C 109.13 314.67 112.07 314.98 114.93 314.92 C 127.66 315.05 140.40 314.72 153.12 315.07 C 157.56 315.19 160.54 319.89 159.69 324.05 C 159.36 327.86 155.72 330.68 151.96 330.44 C 138.64 330.53 125.30 330.41 111.98 330.49 C 109.56 330.43 106.91 330.61 104.82 329.18 C 100.00 326.05 100.72 317.31 106.35 315.47 Z" />
<path fill="#00aadb" opacity="1.00" d=" M 150.22 464.29 C 163.75 463.45 177.39 464.19 190.97 463.92 C 194.64 464.08 199.08 463.14 201.93 466.10 C 206.26 470.41 203.55 479.49 196.95 479.33 C 183.30 479.53 169.65 479.31 156.00 479.43 C 153.28 479.36 150.23 479.67 147.95 477.91 C 143.32 474.49 144.40 465.77 150.22 464.29 Z" />
</g>
</svg>
