<?xml version="1.0" encoding="UTF-8" ?>
<!DOCTYPE svg PUBLIC "-//W3C//DTD SVG 1.1//EN" "http://www.w3.org/Graphics/SVG/1.1/DTD/svg11.dtd">
<svg width="512pt" height="512pt" viewBox="0 0 512 512" version="1.1" xmlns="http://www.w3.org/2000/svg">
<g id="#000000ff">
<path fill="#00aadb" opacity="1.00" d=" M 216.07 22.93 C 216.35 14.79 223.83 7.81 231.97 8.02 C 247.99 7.99 264.02 7.98 280.04 8.02 C 288.16 7.82 295.59 14.83 295.92 22.93 C 296.13 29.87 295.92 36.83 296.01 43.77 C 314.10 47.12 331.71 52.89 348.31 60.80 C 352.53 55.17 356.51 49.36 360.83 43.81 C 365.81 37.62 375.62 36.38 382.04 41.05 C 395.20 50.56 408.32 60.13 421.43 69.72 C 428.09 74.48 429.75 84.58 425.12 91.30 C 421.35 96.79 417.33 102.09 413.44 107.49 C 425.90 120.92 436.72 135.86 445.42 151.99 C 452.00 150.08 458.48 147.82 465.08 145.95 C 470.80 144.30 477.31 146.36 481.17 150.86 C 483.53 153.43 484.53 156.85 485.57 160.10 C 490.12 174.22 494.81 188.29 499.34 202.41 C 501.22 208.20 499.29 214.86 494.81 218.92 C 492.48 221.21 489.31 222.25 486.28 223.26 C 480.93 225.00 475.57 226.71 470.23 228.50 C 472.43 245.89 472.61 263.54 470.64 280.95 C 465.31 280.33 459.98 279.68 454.65 279.04 C 456.52 263.09 456.35 246.95 454.42 231.02 C 453.34 223.79 457.86 216.27 464.78 213.90 C 471.16 211.65 477.65 209.71 484.06 207.53 C 479.21 192.33 474.07 177.23 469.31 162.01 C 462.45 163.88 455.83 166.55 448.94 168.30 C 442.25 169.89 434.93 166.40 431.69 160.40 C 423.38 145.59 413.27 131.81 401.55 119.52 C 396.43 114.36 395.53 105.65 399.69 99.64 C 403.57 93.98 407.71 88.49 411.67 82.88 C 398.75 73.49 385.82 64.10 372.88 54.73 C 369.03 59.97 365.28 65.29 361.41 70.51 C 358.35 74.76 353.21 77.45 347.95 77.23 C 344.62 77.25 341.56 75.81 338.62 74.43 C 324.17 67.68 308.85 62.85 293.21 59.77 C 286.14 58.59 280.29 52.26 280.02 45.05 C 279.77 38.04 280.00 31.02 279.92 24.00 C 263.92 24.00 247.92 24.00 231.92 24.01 C 231.86 30.68 232.04 37.35 231.85 44.03 C 231.71 51.24 226.05 57.74 218.98 59.04 C 202.41 62.33 186.26 67.65 171.03 74.96 C 163.77 78.80 154.25 75.96 149.98 69.03 C 146.39 64.10 142.81 59.16 139.20 54.24 C 126.26 63.61 113.35 73.02 100.41 82.37 C 104.29 87.90 108.41 93.25 112.23 98.81 C 115.20 103.13 115.79 108.93 113.78 113.76 C 112.33 117.39 109.33 120.03 106.81 122.91 C 96.75 134.12 88.04 146.53 80.79 159.73 C 77.57 166.31 69.67 170.17 62.53 168.21 C 55.88 166.19 49.41 163.62 42.80 161.45 C 37.84 176.67 32.87 191.89 27.93 207.12 C 34.17 209.19 40.45 211.13 46.67 213.28 C 51.59 214.91 55.65 218.98 57.05 224.00 C 58.07 227.23 57.59 230.65 57.24 233.95 C 55.50 248.92 55.67 264.08 57.51 279.04 C 52.18 279.67 46.85 280.34 41.51 280.94 C 39.40 263.57 39.53 245.93 41.76 228.57 C 35.24 226.30 28.64 224.25 22.12 221.97 C 14.40 219.09 10.20 209.61 13.04 201.91 C 18.04 186.65 22.96 171.36 28.01 156.12 C 30.49 148.54 39.27 143.76 46.98 145.98 C 53.63 147.97 60.19 150.27 66.80 152.40 C 75.52 136.27 86.31 121.27 98.80 107.84 C 94.74 102.07 90.44 96.46 86.50 90.60 C 82.11 83.74 84.28 73.82 91.02 69.28 C 103.82 59.99 116.62 50.70 129.43 41.41 C 134.16 37.82 140.91 37.14 146.19 39.91 C 149.47 41.44 151.73 44.38 153.76 47.27 C 157.02 51.80 160.32 56.30 163.61 60.80 C 180.23 52.89 197.89 47.15 215.99 43.78 C 216.08 36.83 215.87 29.88 216.07 22.93 Z" />
<path fill="#00aadb" opacity="1.00" d=" M 168.35 103.38 C 198.34 86.04 233.56 78.04 268.10 80.45 C 300.14 82.50 331.51 93.73 357.66 112.35 C 383.10 130.33 403.62 155.19 416.42 183.59 C 430.19 213.93 434.96 248.24 430.15 281.20 C 424.89 280.35 419.62 279.55 414.34 278.81 C 418.97 246.89 413.71 213.59 399.26 184.73 C 386.07 158.17 365.31 135.43 340.07 119.86 C 314.15 103.74 283.52 95.40 253.01 96.06 C 220.15 96.56 187.57 107.61 161.15 127.16 C 137.53 144.54 118.81 168.51 107.78 195.69 C 97.11 221.85 93.52 250.90 97.81 278.84 C 92.48 279.62 87.17 280.46 81.84 281.20 C 77.00 248.01 81.86 213.44 95.86 182.95 C 110.96 149.74 136.72 121.53 168.35 103.38 Z" />
<path fill="#00aadb" opacity="1.00" d=" M 161.09 162.19 C 163.35 156.19 169.51 151.93 175.94 152.02 C 213.31 151.98 250.69 151.99 288.07 152.02 C 294.49 151.91 300.57 156.22 302.87 162.17 C 304.08 164.95 303.99 168.03 304.02 171.00 C 303.98 178.00 304.00 185.00 304.00 192.00 C 317.36 192.02 330.71 191.96 344.07 192.02 C 352.55 191.81 360.15 199.48 359.97 207.94 C 360.02 229.32 360.02 250.70 359.97 272.07 C 360.06 278.22 356.13 284.05 350.58 286.57 C 346.75 288.41 342.36 287.96 338.24 288.01 C 340.09 295.35 342.16 302.65 343.93 310.01 C 345.35 314.91 341.01 320.08 336.02 319.99 C 333.61 320.09 331.55 318.69 329.77 317.25 C 318.32 308.01 306.77 298.89 295.33 289.64 C 294.32 288.96 293.38 287.85 292.04 288.02 C 280.02 287.94 268.00 288.06 255.98 287.98 C 247.87 288.13 240.33 281.17 240.08 273.02 C 239.88 264.68 240.07 256.34 240.00 248.00 C 235.62 247.99 231.25 248.01 226.87 247.98 C 215.39 257.12 203.94 266.30 192.47 275.45 C 189.74 277.63 186.83 280.52 183.01 279.95 C 178.32 279.63 174.68 274.60 176.05 270.05 C 177.84 262.67 179.89 255.36 181.75 248.01 C 178.78 247.99 175.78 248.16 172.83 247.67 C 165.64 246.28 159.86 239.45 160.02 232.06 C 159.95 212.03 160.04 192.01 159.98 171.98 C 160.01 168.70 159.80 165.28 161.09 162.19 M 176.00 168.00 C 176.00 189.33 176.00 210.67 176.00 232.00 C 181.67 232.08 187.34 231.84 193.01 232.10 C 196.98 232.28 200.34 236.00 200.20 239.97 C 199.84 243.73 198.41 247.27 197.54 250.92 C 204.49 245.44 211.38 239.86 218.31 234.33 C 219.90 233.05 221.78 231.97 223.89 232.05 C 229.26 231.89 234.63 232.06 240.00 232.00 C 240.06 223.64 239.88 215.28 240.07 206.92 C 240.36 198.81 247.78 191.85 255.89 192.02 C 266.59 191.95 277.30 192.03 288.00 192.00 C 288.00 184.00 288.00 176.00 288.00 168.00 C 250.67 168.00 213.33 168.00 176.00 168.00 M 256.00 208.00 C 256.00 229.33 256.00 250.67 256.00 272.00 C 269.38 272.04 282.75 271.92 296.13 272.05 C 298.48 271.96 300.48 273.34 302.23 274.75 C 308.95 280.17 315.72 285.54 322.47 290.93 C 321.68 287.28 320.36 283.72 320.04 279.98 C 319.85 275.76 323.65 271.96 327.86 272.05 C 333.23 271.88 338.62 272.06 344.00 272.00 C 344.00 250.67 344.00 229.33 344.00 208.00 C 314.67 208.00 285.33 208.00 256.00 208.00 Z" />
<path fill="#00aadb" opacity="1.00" d=" M 62.90 318.96 C 70.90 309.78 82.84 304.14 95.03 303.96 C 108.80 303.55 122.53 310.12 130.85 321.10 C 138.63 331.12 141.73 344.61 139.01 357.02 C 136.81 367.86 130.23 377.61 121.25 384.01 C 130.77 384.26 140.36 383.38 149.82 384.63 C 159.60 386.06 167.40 392.46 175.43 397.66 C 183.98 403.40 192.60 409.05 201.14 414.81 C 202.30 415.63 203.63 416.17 205.06 416.33 C 219.36 418.40 233.63 420.65 247.93 422.75 C 251.32 423.21 254.74 424.22 258.20 423.69 C 274.17 421.27 290.15 418.86 306.13 416.48 C 307.55 416.25 309.02 416.01 310.25 415.20 C 323.56 406.57 336.69 397.66 350.08 389.17 C 362.38 381.74 377.19 384.51 390.79 384.01 C 381.79 377.63 375.19 367.89 372.98 357.05 C 370.08 343.94 373.74 329.63 382.48 319.45 C 390.68 309.74 403.24 303.86 415.97 303.95 C 429.66 303.84 443.19 310.62 451.28 321.67 C 458.76 331.63 461.68 344.87 459.01 357.04 C 456.80 367.87 450.22 377.61 441.25 384.01 C 449.82 383.66 458.75 384.30 466.42 388.51 C 476.71 393.79 484.43 403.77 486.96 415.06 C 488.20 420.25 488.00 425.62 488.00 430.92 C 488.00 455.28 488.00 479.64 488.00 504.00 C 482.66 504.00 477.33 504.00 472.00 504.00 C 471.98 477.34 472.03 450.67 471.98 424.01 C 472.31 410.80 460.12 399.22 446.96 400.07 C 421.30 400.08 395.63 400.03 369.97 400.09 C 364.83 400.04 359.78 401.73 355.57 404.65 C 342.77 413.18 329.95 421.67 317.16 430.22 C 315.33 431.55 313.11 432.10 310.91 432.36 C 295.27 434.54 279.64 436.81 264.00 438.96 C 264.00 441.97 264.00 444.98 264.00 448.00 C 278.33 448.02 292.65 447.96 306.98 448.03 C 308.44 447.98 310.00 448.10 311.35 447.40 C 326.48 439.88 341.54 432.21 356.71 424.79 C 361.61 422.27 368.06 426.34 367.93 431.83 C 368.09 455.88 367.95 479.94 368.00 504.00 C 362.66 504.00 357.33 504.00 352.00 504.00 C 352.00 484.32 352.00 464.65 352.00 444.98 C 341.56 450.20 331.11 455.40 320.67 460.62 C 317.61 462.08 314.59 464.15 311.04 463.99 C 275.69 464.02 240.34 463.97 204.99 464.02 C 201.98 463.95 198.76 464.36 196.00 462.89 C 184.00 456.92 172.01 450.92 160.01 444.93 C 159.99 464.62 160.01 484.31 160.00 504.00 C 154.67 504.00 149.33 504.00 144.00 504.00 C 144.04 479.98 143.92 455.97 144.05 431.95 C 143.84 426.41 150.35 422.24 155.29 424.80 C 170.48 432.16 185.52 439.85 200.65 447.35 C 201.98 448.07 203.52 447.99 204.99 448.03 C 219.33 447.96 233.66 448.02 248.00 448.00 C 248.00 444.98 248.00 441.97 248.00 438.96 C 231.12 436.35 214.14 434.35 197.32 431.47 C 182.82 422.59 168.98 412.57 154.62 403.42 C 150.55 400.94 145.74 399.90 141.00 400.00 C 114.99 400.04 88.98 399.92 62.97 400.06 C 50.91 400.25 40.23 410.92 40.06 422.99 C 39.92 449.99 40.04 477.00 40.00 504.00 C 34.67 504.00 29.33 504.00 24.00 504.00 C 24.03 477.00 23.94 450.00 24.05 423.00 C 24.19 406.64 35.58 391.23 51.11 386.15 C 57.40 383.86 64.19 383.90 70.79 384.01 C 61.47 377.42 54.75 367.20 52.75 355.92 C 50.24 342.91 54.13 328.88 62.90 318.96 M 90.35 320.62 C 77.22 322.98 67.32 335.81 68.02 349.08 C 68.28 362.18 78.92 373.99 91.90 375.68 C 101.94 377.27 112.61 372.81 118.55 364.56 C 124.47 356.65 125.68 345.51 121.51 336.54 C 116.53 324.81 102.79 317.74 90.35 320.62 M 410.46 320.59 C 398.04 322.82 388.33 334.37 388.04 346.94 C 387.24 360.15 397.19 372.83 410.15 375.37 C 419.95 377.56 430.75 373.91 437.22 366.22 C 443.85 358.65 445.86 347.36 442.11 338.00 C 437.66 325.51 423.41 317.63 410.46 320.59 Z" />
<path fill="#00aadb" opacity="1.00" d=" M 248.00 352.00 C 253.33 352.00 258.66 352.00 264.00 352.00 C 264.00 362.67 264.00 373.33 264.00 384.00 C 258.66 384.00 253.33 384.00 248.00 384.00 C 248.00 373.33 248.00 362.67 248.00 352.00 Z" />
<path fill="#00aadb" opacity="1.00" d=" M 201.65 372.94 C 205.91 369.75 210.16 366.54 214.40 363.32 C 220.84 371.83 227.25 380.35 233.67 388.87 C 229.42 392.10 225.17 395.31 220.89 398.49 C 214.46 389.98 208.04 381.47 201.65 372.94 Z" />
<path fill="#00aadb" opacity="1.00" d=" M 278.52 388.86 C 284.95 380.36 291.34 371.83 297.77 363.32 C 302.04 366.51 306.30 369.71 310.54 372.95 C 304.14 381.48 297.71 389.99 291.29 398.50 C 287.04 395.27 282.77 392.08 278.52 388.86 Z" />
<path fill="#00aadb" opacity="1.00" d=" M 56.00 424.00 C 61.33 424.00 66.67 424.00 72.00 424.00 C 72.00 450.67 72.00 477.33 72.00 504.00 C 66.67 504.00 61.33 504.00 56.00 504.00 C 56.00 477.33 56.00 450.67 56.00 424.00 Z" />
<path fill="#00aadb" opacity="1.00" d=" M 440.00 424.00 C 445.33 424.00 450.66 424.00 456.00 424.00 C 456.00 450.67 456.00 477.33 456.00 504.00 C 450.66 504.00 445.33 504.00 440.00 504.00 C 440.00 477.33 440.00 450.67 440.00 424.00 Z" />
</g>
</svg>
