<?xml version="1.0" encoding="UTF-8" ?>
<!DOCTYPE svg PUBLIC "-//W3C//DTD SVG 1.1//EN" "http://www.w3.org/Graphics/SVG/1.1/DTD/svg11.dtd">
<svg width="512pt" height="512pt" viewBox="0 0 512 512" version="1.1" xmlns="http://www.w3.org/2000/svg">
<g id="#00aadbff">
<path fill="#00aadb" opacity="1.00" d=" M 23.03 77.91 C 22.88 65.57 33.25 53.50 46.00 53.82 C 186.00 53.79 326.00 53.79 466.00 53.82 C 478.76 53.50 489.09 65.59 488.96 77.93 C 489.03 166.29 488.98 254.65 488.98 343.01 C 489.40 355.23 479.71 367.60 467.05 367.88 C 409.03 368.00 351.01 367.90 293.00 367.94 C 292.99 377.20 292.99 386.47 293.00 395.73 C 302.34 395.84 311.70 395.50 321.04 395.91 C 335.78 396.84 349.21 407.49 353.67 421.54 C 356.41 429.42 355.34 437.86 355.59 446.04 C 355.55 449.25 355.94 453.00 353.50 455.53 C 351.69 457.69 348.76 458.28 346.08 458.21 C 287.39 458.20 228.70 458.18 170.02 458.22 C 166.31 458.09 161.91 458.89 158.98 456.04 C 156.06 453.55 156.38 449.43 156.40 445.98 C 156.64 437.55 155.53 428.80 158.59 420.73 C 163.40 406.71 177.21 396.34 192.06 395.84 C 201.03 395.59 210.02 395.80 218.99 395.73 C 219.00 386.47 219.00 377.20 218.99 367.94 C 163.67 367.93 108.35 367.93 53.03 367.94 C 47.89 367.88 42.51 368.44 37.67 366.30 C 28.56 362.57 22.82 352.75 23.01 343.05 C 23.00 254.67 22.95 166.29 23.03 77.91 M 38.99 79.91 C 39.02 152.83 38.99 225.75 39.00 298.67 C 183.66 298.66 328.32 298.67 472.98 298.67 C 473.00 225.77 472.97 152.87 473.00 79.97 C 473.05 77.01 472.54 73.78 470.29 71.64 C 467.90 69.07 464.08 69.95 460.97 69.78 C 325.65 69.83 190.33 69.78 55.01 69.80 C 51.38 69.89 47.71 69.48 44.12 70.11 C 40.17 71.48 38.77 76.09 38.99 79.91 M 39.00 314.67 C 39.08 324.48 38.84 334.31 39.10 344.12 C 39.20 348.22 42.52 352.49 46.95 351.94 C 186.34 351.93 325.73 351.93 465.12 351.93 C 469.95 352.47 473.16 347.46 472.96 343.10 C 473.06 333.63 472.95 324.14 472.98 314.67 C 328.32 314.67 183.66 314.67 39.00 314.67 M 235.00 367.94 C 235.00 377.20 235.00 386.47 235.00 395.74 C 249.00 395.73 262.99 395.73 276.98 395.74 C 276.99 386.47 276.98 377.20 276.98 367.93 C 262.99 367.93 249.00 367.93 235.00 367.94 M 174.09 424.99 C 171.74 430.43 172.57 436.45 172.45 442.20 C 228.16 442.20 283.86 442.20 339.56 442.20 C 339.46 436.23 340.30 429.92 337.63 424.35 C 334.29 416.78 326.28 411.66 318.01 411.76 C 276.67 411.74 235.33 411.74 193.99 411.76 C 185.47 411.63 177.28 417.11 174.09 424.99 Z" />
<path fill="#00aadb" opacity="1.00" d=" M 116.42 83.69 C 121.81 82.56 127.72 82.33 133.03 83.97 C 140.02 86.66 141.36 94.71 144.13 100.77 C 149.64 98.80 154.99 94.88 161.12 95.95 C 166.37 96.77 169.81 101.21 173.31 104.77 C 176.72 108.22 178.03 113.58 176.41 118.19 C 175.18 121.77 173.52 125.20 172.09 128.71 C 178.45 131.49 187.02 133.16 189.25 140.81 C 190.28 146.02 190.47 151.66 189.01 156.80 C 186.48 164.02 178.24 165.48 172.08 168.27 C 174.05 173.68 177.82 178.92 176.95 184.94 C 176.24 190.24 171.85 193.78 168.25 197.27 C 164.93 200.60 159.82 202.08 155.28 200.72 C 151.44 199.52 147.85 197.69 144.13 196.20 C 141.34 202.45 139.80 210.85 132.37 213.24 C 127.06 214.49 121.24 214.59 115.97 213.10 C 108.79 210.53 107.38 202.33 104.61 196.19 C 99.19 198.12 93.94 201.97 87.92 201.06 C 82.63 200.41 79.15 195.98 75.65 192.44 C 72.20 189.06 70.70 183.79 72.20 179.16 C 73.41 175.40 75.20 171.87 76.66 168.20 C 70.40 165.48 62.07 163.94 59.63 156.57 C 58.39 151.14 58.23 145.15 59.86 139.79 C 62.56 132.80 70.62 131.52 76.66 128.72 C 74.72 123.28 70.85 118.01 71.79 111.97 C 72.49 106.64 77.00 103.19 80.54 99.64 C 83.91 96.25 89.14 94.84 93.72 96.32 C 97.45 97.53 100.97 99.31 104.61 100.77 C 107.40 94.49 108.94 86.06 116.42 83.69 M 111.42 116.43 C 104.20 119.81 97.16 114.65 90.56 112.23 C 89.74 113.05 88.92 113.87 88.10 114.68 C 90.52 121.28 95.66 128.28 92.32 135.50 C 89.38 142.60 81.05 143.88 74.82 146.76 C 74.82 147.63 74.81 149.37 74.81 150.24 C 81.02 153.13 89.32 154.36 92.30 161.41 C 95.70 168.67 90.49 175.70 88.11 182.36 C 88.93 183.16 89.75 183.96 90.58 184.76 C 97.17 182.35 104.19 177.18 111.39 180.54 C 118.50 183.50 119.71 191.85 122.64 198.07 C 123.50 198.07 125.24 198.07 126.10 198.07 C 127.82 194.06 129.17 189.89 131.21 186.03 C 134.00 180.98 140.40 178.28 145.96 179.85 C 150.18 181.09 154.09 183.16 158.18 184.76 C 158.99 183.94 159.81 183.12 160.63 182.30 C 158.22 175.70 153.02 168.62 156.44 161.41 C 159.41 154.34 167.74 153.18 173.92 150.23 C 173.92 149.36 173.93 147.62 173.93 146.75 C 167.77 143.82 159.50 142.67 156.49 135.67 C 152.97 128.44 158.21 121.32 160.63 114.69 C 159.81 113.87 158.99 113.05 158.18 112.23 C 151.60 114.63 144.63 119.75 137.43 116.49 C 130.26 113.58 129.04 105.17 126.11 98.93 C 125.24 98.93 123.50 98.93 122.63 98.93 C 119.72 105.14 118.49 113.47 111.42 116.43 Z" />
<path fill="#00aadb" opacity="1.00" d=" M 222.45 101.64 C 223.58 101.37 224.73 101.25 225.90 101.26 C 298.98 101.30 372.06 101.22 445.13 101.30 C 450.07 101.04 454.21 106.15 452.98 110.93 C 452.21 114.99 448.08 117.62 444.07 117.26 C 372.73 117.29 301.38 117.23 230.03 117.29 C 226.14 117.26 221.33 117.83 218.66 114.30 C 215.06 110.25 217.19 103.02 222.45 101.64 Z" />
<path fill="#00aadb" opacity="1.00" d=" M 121.33 121.41 C 129.47 120.47 137.96 123.41 143.68 129.28 C 149.09 134.67 152.06 142.41 151.57 150.04 C 151.15 158.79 146.14 167.14 138.66 171.69 C 132.59 175.47 125.01 176.69 118.07 175.01 C 108.94 172.92 101.21 165.74 98.41 156.81 C 95.90 149.11 97.07 140.29 101.58 133.54 C 105.96 126.85 113.37 122.24 121.33 121.41 M 121.49 137.62 C 118.18 138.47 115.37 140.95 114.03 144.08 C 111.25 150.07 115.06 157.83 121.47 159.34 C 128.12 161.35 135.56 155.86 135.59 148.91 C 136.14 141.65 128.45 135.51 121.49 137.62 Z" />
<path fill="#00aadb" opacity="1.00" d=" M 223.40 140.68 C 226.56 140.27 229.77 140.50 232.95 140.46 C 303.32 140.47 373.70 140.46 444.07 140.47 C 448.86 139.95 453.61 144.00 453.15 148.96 C 453.02 153.57 448.52 156.94 444.07 156.53 C 371.37 156.54 298.66 156.54 225.96 156.53 C 222.49 156.75 218.85 154.99 217.51 151.65 C 215.40 147.20 218.49 141.32 223.40 140.68 Z" />
<path fill="#00aadb" opacity="1.00" d=" M 221.40 180.52 C 224.43 179.28 227.81 179.83 231.00 179.72 C 302.02 179.75 373.03 179.73 444.05 179.73 C 448.07 179.33 452.22 181.96 452.99 186.04 C 454.20 190.87 449.99 195.96 445.02 195.70 C 372.00 195.78 298.96 195.70 225.93 195.74 C 222.38 196.01 218.66 194.11 217.42 190.66 C 215.84 186.90 217.69 182.19 221.40 180.52 Z" />
<path fill="#00aadb" opacity="1.00" d=" M 131.36 227.54 C 137.00 225.16 143.69 231.08 141.77 236.97 C 137.42 250.42 132.50 263.70 128.02 277.11 C 127.07 279.82 126.16 282.95 123.44 284.41 C 119.55 286.90 113.83 285.05 112.09 280.80 C 110.84 278.36 111.55 275.59 112.41 273.16 C 117.06 259.86 121.62 246.53 126.24 233.23 C 127.05 230.72 128.76 228.37 131.36 227.54 Z" />
<path fill="#00aadb" opacity="1.00" d=" M 391.23 227.17 C 395.07 226.40 399.18 228.91 400.26 232.67 C 401.15 235.26 400.09 237.94 399.27 240.40 C 395.04 252.48 390.85 264.57 386.72 276.69 C 385.72 279.43 384.92 282.64 382.24 284.25 C 378.49 286.85 372.78 285.30 370.82 281.20 C 369.32 278.63 370.05 275.58 371.00 272.97 C 375.69 259.66 380.21 246.30 384.88 232.99 C 385.75 230.08 388.16 227.63 391.23 227.17 Z" />
<path fill="#00aadb" opacity="1.00" d=" M 85.31 235.30 C 87.17 233.38 89.17 231.15 92.02 230.92 C 96.66 230.18 101.25 234.30 101.00 239.00 C 101.08 242.19 98.69 244.55 96.65 246.69 C 93.55 249.87 90.48 253.09 87.42 256.31 C 91.57 260.97 96.42 265.04 100.09 270.10 C 103.66 276.05 96.87 283.90 90.45 281.31 C 85.94 279.17 83.25 274.59 79.63 271.30 C 76.47 267.84 73.03 264.64 70.02 261.05 C 67.56 258.06 67.98 253.39 70.71 250.71 C 75.51 245.51 80.51 240.50 85.31 235.30 Z" />
<path fill="#00aadb" opacity="1.00" d=" M 154.98 233.00 C 157.89 230.15 163.01 230.15 165.87 233.08 C 170.76 237.89 175.30 243.03 180.14 247.89 C 182.29 250.19 185.04 252.59 185.04 256.03 C 185.30 259.82 182.26 262.47 179.90 264.96 C 175.08 269.80 170.58 274.96 165.66 279.70 C 162.67 282.60 157.44 282.32 154.65 279.28 C 151.79 276.44 151.67 271.40 154.48 268.48 C 158.22 264.32 162.21 260.39 166.03 256.30 C 162.14 252.11 158.02 248.14 154.26 243.84 C 151.53 240.79 151.93 235.68 154.98 233.00 Z" />
<path fill="#00aadb" opacity="1.00" d=" M 346.10 233.09 C 348.95 230.14 354.09 230.15 357.00 233.00 C 360.01 235.66 360.44 240.71 357.79 243.77 C 354.05 248.13 349.85 252.08 345.97 256.32 C 349.79 260.41 353.80 264.31 357.52 268.48 C 360.49 271.61 360.12 277.06 356.80 279.79 C 353.75 282.56 348.60 282.31 345.83 279.26 C 340.85 274.24 336.10 269.00 331.14 263.95 C 329.29 261.98 327.11 259.89 326.97 257.01 C 326.51 253.74 328.71 251.07 330.87 248.94 C 336.02 243.73 340.90 238.25 346.10 233.09 Z" />
<path fill="#00aadb" opacity="1.00" d=" M 410.97 238.97 C 410.74 234.25 415.39 230.13 420.05 230.94 C 423.36 231.29 425.47 234.14 427.65 236.33 C 432.27 241.40 437.25 246.15 441.78 251.31 C 444.47 254.35 444.02 259.25 441.17 262.04 C 435.80 267.74 430.39 273.40 424.95 279.04 C 422.41 281.93 417.80 282.64 414.60 280.44 C 410.75 278.09 409.72 272.26 412.73 268.84 C 416.52 264.52 420.67 260.52 424.57 256.30 C 421.17 252.73 417.78 249.17 414.36 245.63 C 412.59 243.83 410.90 241.63 410.97 238.97 Z" />
<path fill="#00aadb" opacity="1.00" d=" M 322.39 325.51 C 327.61 325.08 332.87 325.44 338.11 325.31 C 341.41 325.05 345.04 326.21 346.69 329.29 C 349.36 333.56 346.82 339.90 341.87 340.99 C 337.28 341.72 332.60 341.17 327.98 341.36 C 324.36 341.42 319.97 341.57 317.60 338.29 C 313.79 333.96 316.62 326.19 322.39 325.51 Z" />
<path fill="#00aadb" opacity="1.00" d=" M 376.36 325.60 C 382.26 325.02 388.23 325.41 394.16 325.36 C 397.66 325.23 401.00 327.67 401.93 331.04 C 403.46 335.62 399.89 340.99 395.04 341.21 C 389.35 341.46 383.64 341.40 377.95 341.25 C 373.73 341.21 370.13 337.28 370.36 333.10 C 370.38 329.63 372.96 326.34 376.36 325.60 Z" />
<path fill="#00aadb" opacity="1.00" d=" M 431.35 325.51 C 436.57 325.08 441.83 325.44 447.07 325.31 C 450.14 325.11 453.54 325.99 455.30 328.72 C 458.50 332.93 456.09 339.80 450.91 340.98 C 446.65 341.70 442.30 341.19 438.01 341.35 C 434.10 341.33 429.25 341.89 426.61 338.32 C 422.76 334.01 425.57 326.21 431.35 325.51 Z" />
</g>
</svg>
