<?xml version="1.0" encoding="UTF-8" ?>
<!DOCTYPE svg PUBLIC "-//W3C//DTD SVG 1.1//EN" "http://www.w3.org/Graphics/SVG/1.1/DTD/svg11.dtd">
<svg width="512pt" height="512pt" viewBox="0 0 512 512" version="1.1" xmlns="http://www.w3.org/2000/svg">
<g id="#00aadbff">
<path fill="#00aadb" opacity="1.00" d=" M 247.44 0.00 L 264.64 0.00 C 304.69 1.10 345.09 6.30 382.84 20.24 C 400.86 27.06 418.64 35.85 432.67 49.31 C 442.35 58.61 449.83 71.17 449.85 84.92 C 449.91 110.94 449.85 136.96 449.87 162.98 C 449.74 173.30 450.87 184.00 446.90 193.82 C 448.68 199.01 449.95 204.42 449.86 209.94 C 449.88 240.64 449.88 271.34 449.86 302.03 C 449.94 307.53 448.72 312.95 446.92 318.12 C 448.81 323.54 450.01 329.23 449.88 335.00 C 449.86 365.68 449.91 396.35 449.85 427.03 C 449.83 439.54 443.63 451.22 435.17 460.12 C 422.54 473.42 406.06 482.29 389.28 489.23 C 350.34 504.94 308.14 510.57 266.42 512.00 L 247.48 512.00 C 218.07 511.21 188.62 508.16 160.01 501.13 C 136.86 495.39 113.91 487.39 93.85 474.26 C 81.40 465.93 69.68 455.03 64.53 440.60 C 61.21 431.76 62.31 422.20 62.11 412.97 C 61.89 409.83 62.96 406.36 65.91 404.81 C 69.82 402.40 75.56 404.62 76.75 409.07 C 78.08 417.70 75.70 426.76 78.58 435.19 C 82.41 446.03 91.31 454.08 100.45 460.57 C 119.54 473.60 141.70 481.26 163.98 486.77 C 189.51 492.99 215.76 495.94 242.00 496.77 C 279.69 497.81 317.72 494.81 354.26 485.21 C 373.69 479.96 392.89 472.92 409.78 461.79 C 418.94 455.55 427.84 447.94 432.47 437.61 C 434.92 432.43 435.02 426.60 434.88 420.98 C 434.86 403.10 434.88 385.22 434.88 367.34 C 419.60 383.01 399.48 392.85 379.06 400.02 C 357.98 407.25 336.09 411.87 314.03 414.86 C 279.87 419.44 245.18 420.04 210.91 416.40 C 180.17 413.02 149.38 407.18 120.69 395.34 C 104.70 388.66 89.26 379.88 77.12 367.33 C 77.09 370.88 77.37 374.46 76.87 377.99 C 76.13 382.14 71.35 384.81 67.40 383.46 C 64.24 382.54 62.03 379.37 62.16 376.10 C 62.06 362.41 62.16 348.72 62.12 335.04 C 61.97 329.25 63.17 323.54 65.08 318.10 C 63.26 312.93 62.04 307.50 62.13 301.99 C 62.12 271.34 62.12 240.69 62.13 210.04 C 62.03 204.51 63.27 199.08 65.08 193.88 C 63.30 188.76 62.06 183.41 62.14 177.96 C 62.12 146.97 62.10 115.97 62.15 84.98 C 62.13 74.38 66.61 64.23 73.17 56.07 C 75.26 53.57 77.38 50.37 80.93 50.04 C 85.04 49.43 89.13 52.85 89.28 57.00 C 89.64 60.61 86.68 63.14 84.70 65.74 C 79.12 72.53 75.70 81.67 77.73 90.47 C 79.98 100.28 87.00 108.13 94.54 114.40 C 109.19 126.25 126.79 133.76 144.55 139.63 C 184.30 152.23 226.38 156.07 267.92 155.14 C 305.99 154.02 344.41 148.81 380.13 135.14 C 395.11 129.20 409.88 121.78 421.70 110.64 C 428.47 104.13 434.42 95.73 434.82 86.04 C 435.17 76.36 429.60 67.64 423.04 61.00 C 411.93 49.91 397.79 42.45 383.42 36.49 C 351.53 23.60 317.16 17.96 282.98 15.80 C 248.51 13.83 213.74 15.47 179.79 21.89 C 158.65 26.00 137.66 31.78 118.23 41.21 C 115.33 42.51 112.35 44.63 109.00 43.85 C 104.63 43.01 101.89 37.82 103.69 33.74 C 104.55 31.35 106.85 30.03 109.00 28.97 C 133.20 16.96 159.59 10.00 186.15 5.57 C 206.40 2.13 226.92 0.62 247.44 0.00 M 77.13 118.83 C 77.13 138.54 77.11 158.24 77.14 177.95 C 77.27 192.41 88.56 203.49 99.52 211.41 C 113.30 221.15 129.01 227.78 145.00 232.97 C 170.55 241.11 197.20 245.41 223.90 247.35 C 266.09 250.20 308.88 247.77 350.02 237.66 C 354.71 236.58 359.24 234.88 363.99 234.04 C 368.93 233.49 373.24 238.81 371.68 243.54 C 370.82 247.05 367.33 248.79 364.06 249.41 C 347.04 254.30 329.62 257.67 312.07 259.96 C 266.17 265.75 219.33 264.40 173.91 255.57 C 155.10 251.80 136.45 246.78 118.78 239.22 C 103.54 232.68 88.90 224.10 77.24 212.15 C 78.36 220.33 83.02 227.52 88.71 233.31 C 97.36 242.11 108.10 248.53 119.15 253.87 C 138.70 263.17 159.74 268.96 180.96 272.98 C 202.75 276.99 224.88 279.04 247.02 279.45 C 285.92 280.10 325.20 276.48 362.61 265.41 C 380.78 259.80 398.77 252.61 414.16 241.24 C 423.77 234.03 432.97 224.44 434.79 212.06 C 425.20 221.81 413.59 229.38 401.33 235.32 C 397.13 237.61 391.33 234.72 390.63 230.00 C 389.88 226.48 392.10 222.91 395.34 221.58 C 405.89 216.29 416.15 209.98 424.30 201.34 C 430.21 195.02 434.95 186.91 434.86 178.03 C 434.89 158.29 434.87 138.56 434.87 118.82 C 422.14 132.00 405.79 141.02 388.94 147.82 C 367.76 156.22 345.47 161.55 322.99 165.05 C 278.33 172.03 232.60 172.01 187.96 164.87 C 164.17 160.98 140.47 155.38 118.27 145.81 C 103.16 139.28 88.66 130.72 77.13 118.83 M 77.12 243.07 C 77.14 262.73 77.11 282.39 77.14 302.06 C 77.00 311.19 82.00 319.46 88.11 325.87 C 97.17 335.30 108.60 342.05 120.33 347.63 C 140.20 356.87 161.51 362.61 183.01 366.56 C 218.27 372.78 254.32 374.07 290.00 371.46 C 320.22 369.11 350.45 363.80 378.89 353.06 C 394.37 346.99 409.70 339.47 421.87 327.92 C 428.93 321.14 434.98 312.18 434.87 302.03 C 434.89 282.37 434.86 262.72 434.88 243.07 C 423.43 254.94 408.97 263.42 393.95 269.97 C 367.13 281.46 338.31 287.54 309.46 291.20 C 268.45 296.35 226.73 295.44 185.95 288.80 C 162.50 284.84 139.15 279.21 117.30 269.65 C 102.55 263.16 88.39 254.73 77.12 243.07 M 77.26 336.47 C 78.15 342.86 81.20 348.76 85.27 353.70 C 91.62 361.45 99.86 367.41 108.43 372.48 C 125.57 382.36 144.47 388.76 163.60 393.51 C 197.35 401.68 232.25 404.42 266.91 403.67 C 298.32 402.88 329.80 399.09 360.06 390.42 C 379.84 384.51 399.54 376.80 416.01 364.08 C 424.79 357.10 433.08 348.00 434.74 336.48 C 421.99 349.41 405.87 358.43 389.15 365.18 C 366.65 374.12 342.89 379.57 318.98 383.08 C 283.25 388.32 246.87 389.15 210.96 385.34 C 179.95 381.98 148.91 375.96 119.99 363.98 C 104.31 357.39 89.27 348.66 77.26 336.47 Z" />
<path fill="#00aadb" opacity="1.00" d=" M 98.37 167.57 C 102.88 166.00 106.56 169.79 110.30 171.62 C 136.43 185.89 165.80 192.91 195.00 197.59 C 198.94 198.11 201.96 202.11 201.28 206.05 C 200.80 210.32 196.21 213.36 192.07 212.28 C 159.05 207.02 125.72 198.66 96.90 181.14 C 91.39 178.26 92.38 169.19 98.37 167.57 Z" />
<path fill="#00aadb" opacity="1.00" d=" M 393.18 171.32 C 397.01 169.78 401.74 172.10 402.90 176.04 C 404.31 179.99 401.68 184.67 397.62 185.60 C 393.90 186.63 389.70 184.27 388.63 180.58 C 387.39 176.91 389.53 172.58 393.18 171.32 Z" />
<path fill="#00aadb" opacity="1.00" d=" M 345.40 187.41 C 350.12 184.33 357.03 188.41 356.66 194.01 C 356.81 199.45 350.11 203.31 345.49 200.38 C 340.57 197.86 340.50 190.00 345.40 187.41 Z" />
<path fill="#00aadb" opacity="1.00" d=" M 97.24 292.29 C 101.92 289.70 106.26 293.74 110.19 295.82 C 136.40 310.13 165.85 317.17 195.12 321.88 C 199.27 322.44 202.23 326.92 201.16 330.96 C 200.31 335.01 195.83 337.57 191.87 336.50 C 159.08 331.26 126.03 322.95 97.33 305.68 C 91.98 303.21 91.88 294.78 97.24 292.29 Z" />
<path fill="#00aadb" opacity="1.00" d=" M 393.38 295.50 C 398.91 293.31 405.04 299.39 402.89 304.93 C 401.40 310.20 393.84 311.85 390.29 307.68 C 386.58 304.01 388.36 296.96 393.38 295.50 Z" />
<path fill="#00aadb" opacity="1.00" d=" M 346.15 311.28 C 351.13 308.78 357.47 313.45 356.62 318.93 C 356.27 324.41 349.17 327.62 344.84 324.21 C 340.16 321.18 340.97 313.31 346.15 311.28 Z" />
<path fill="#00aadb" opacity="1.00" d=" M 97.40 416.45 C 102.28 413.97 106.58 418.27 110.66 420.33 C 134.60 433.28 161.28 440.31 187.96 444.89 C 192.41 445.81 198.40 445.42 200.64 450.26 C 203.52 455.63 197.95 462.43 192.11 460.79 C 159.18 455.54 125.95 447.21 97.16 429.80 C 91.86 427.24 92.00 418.81 97.40 416.45 Z" />
<path fill="#00aadb" opacity="1.00" d=" M 392.28 420.23 C 397.38 417.17 404.41 422.22 403.17 428.03 C 402.54 433.40 395.49 436.27 391.30 432.84 C 386.94 429.85 387.50 422.49 392.28 420.23 Z" />
<path fill="#00aadb" opacity="1.00" d=" M 346.35 435.44 C 351.62 432.97 358.01 438.38 356.49 443.98 C 355.59 449.13 348.75 451.68 344.70 448.36 C 340.07 445.23 341.09 437.32 346.35 435.44 Z" />
</g>
</svg>
