<?xml version="1.0" encoding="UTF-8" ?>
<!DOCTYPE svg PUBLIC "-//W3C//DTD SVG 1.1//EN" "http://www.w3.org/Graphics/SVG/1.1/DTD/svg11.dtd">
<svg width="512pt" height="512pt" viewBox="0 0 512 512" version="1.1" xmlns="http://www.w3.org/2000/svg">
<g id="#000000ff">
<path fill="#00aadb" opacity="1.00" d=" M 371.91 0.00 L 384.36 0.00 C 402.10 0.79 419.89 3.87 436.34 10.73 C 461.56 20.96 483.22 39.93 496.15 63.93 C 506.22 82.19 510.88 102.96 512.00 123.66 L 512.00 134.45 C 511.42 145.35 509.89 156.24 506.78 166.73 C 500.43 188.70 488.02 208.77 471.62 224.67 C 464.70 231.27 458.45 238.77 454.50 247.54 C 450.50 256.12 449.03 265.63 448.88 275.02 C 448.69 286.65 448.83 298.29 448.79 309.93 C 405.02 309.93 361.24 309.95 317.47 309.92 C 317.47 296.75 317.48 283.57 317.47 270.40 C 307.96 270.35 298.46 270.67 288.96 270.55 C 276.07 270.20 264.93 258.86 264.20 246.09 C 263.70 235.63 263.59 225.16 263.23 214.70 C 257.44 212.07 251.42 209.97 245.70 207.18 C 237.88 203.28 231.87 195.77 230.37 187.09 C 228.64 178.45 230.96 169.59 234.82 161.84 C 239.80 150.54 245.49 139.50 250.00 128.03 C 250.48 102.70 256.23 76.97 269.95 55.40 C 274.20 58.02 278.40 60.71 282.63 63.36 C 276.96 72.55 272.61 82.54 269.81 92.96 C 266.18 105.63 265.41 118.86 264.87 131.93 C 259.14 145.35 252.69 158.48 246.79 171.83 C 244.70 176.78 243.84 182.70 246.21 187.71 C 248.01 191.57 251.95 193.73 255.72 195.30 C 263.11 198.36 270.50 201.46 277.90 204.52 C 278.41 217.71 278.61 230.92 279.11 244.11 C 279.08 249.99 284.00 255.61 290.04 255.56 C 304.18 255.60 318.33 255.27 332.48 255.26 C 332.46 268.48 332.49 281.70 332.47 294.92 C 366.24 294.95 400.02 294.93 433.79 294.93 C 433.94 282.31 433.14 269.52 435.73 257.08 C 438.91 240.58 448.45 225.94 460.55 214.53 C 481.00 195.07 494.36 168.17 496.56 139.95 C 498.35 115.85 494.13 90.88 482.18 69.69 C 472.74 52.82 458.33 38.85 441.33 29.70 C 416.62 16.36 387.50 12.80 359.89 16.28 C 333.80 19.57 308.37 31.55 291.18 51.76 C 287.39 48.51 283.56 45.31 279.78 42.04 C 293.73 25.65 312.50 13.64 332.94 7.05 C 345.51 2.81 358.72 0.97 371.91 0.00 Z" />
<path fill="#00aadb" opacity="1.00" d=" M 359.64 32.75 C 364.61 32.72 369.59 32.77 374.56 32.71 C 374.71 37.72 374.61 42.73 374.63 47.74 C 369.63 47.75 364.63 47.75 359.63 47.74 C 359.64 42.74 359.62 37.75 359.64 32.75 Z" />
<path fill="#00aadb" opacity="1.00" d=" M 389.64 32.75 C 394.62 32.73 399.60 32.76 404.59 32.73 C 404.68 37.73 404.62 42.73 404.63 47.74 C 399.62 47.73 394.62 47.79 389.61 47.70 C 389.65 42.71 389.61 37.73 389.64 32.75 Z" />
<path fill="#00aadb" opacity="1.00" d=" M 177.07 58.56 C 180.62 55.05 184.14 51.51 187.67 47.98 C 196.48 56.88 205.54 65.55 214.14 74.64 C 205.24 83.35 196.54 92.27 187.66 101.00 C 184.14 97.47 180.60 93.95 177.08 90.42 C 179.88 87.61 182.69 84.82 185.48 82.01 C 169.44 81.99 153.41 82.00 137.37 82.00 C 137.36 112.02 137.38 142.04 137.36 172.06 C 132.36 172.06 127.37 172.09 122.37 172.04 C 122.37 137.03 122.37 102.02 122.37 67.01 C 143.41 66.98 164.45 67.02 185.49 66.99 C 182.70 64.17 179.87 61.38 177.07 58.56 Z" />
<path fill="#00aadb" opacity="1.00" d=" M 308.39 82.93 C 311.92 79.39 315.45 75.86 318.99 72.34 C 324.30 77.62 329.59 82.93 334.89 88.23 C 331.36 91.77 327.83 95.30 324.29 98.83 C 318.99 93.54 313.68 88.24 308.39 82.93 Z" />
<path fill="#00aadb" opacity="1.00" d=" M 429.28 88.25 C 434.58 82.94 439.87 77.63 445.19 72.35 C 448.73 75.87 452.26 79.39 455.78 82.94 C 450.49 88.25 445.19 93.55 439.88 98.84 C 436.35 95.30 432.82 91.77 429.28 88.25 Z" />
<path fill="#00aadb" opacity="1.00" d=" M 349.31 89.33 C 358.56 79.32 372.53 73.94 386.10 75.25 C 399.10 76.27 411.40 83.44 418.85 94.11 C 426.60 104.90 429.08 119.22 425.50 132.00 C 422.44 143.31 414.66 153.07 404.64 159.05 C 404.52 164.45 404.86 169.86 404.44 175.25 C 403.41 185.16 395.03 193.65 385.13 194.81 C 375.91 196.20 366.24 191.08 362.11 182.74 C 358.29 175.48 359.96 167.01 359.69 159.15 C 349.69 153.03 341.76 143.36 338.75 131.93 C 334.57 117.17 338.71 100.42 349.31 89.33 M 376.45 90.58 C 370.79 91.67 365.47 94.43 361.35 98.45 C 351.14 107.87 349.17 124.62 356.88 136.17 C 364.29 148.23 380.76 153.43 393.72 147.67 C 407.32 142.24 415.28 126.04 411.01 111.98 C 407.25 97.33 391.27 87.37 376.45 90.58 M 374.64 164.43 C 375.01 168.91 373.30 174.49 377.01 177.98 C 380.62 181.66 387.56 180.01 389.15 175.12 C 390.07 171.64 389.48 167.97 389.62 164.42 C 384.66 165.17 379.60 165.15 374.64 164.43 Z" />
<path fill="#00aadb" opacity="1.00" d=" M 296.15 112.53 C 303.65 112.52 311.14 112.53 318.64 112.53 C 318.66 117.53 318.65 122.53 318.64 127.53 C 311.15 127.54 303.65 127.53 296.16 127.53 C 296.13 122.53 296.14 117.53 296.15 112.53 Z" />
<path fill="#00aadb" opacity="1.00" d=" M 445.62 112.54 C 453.11 112.52 460.61 112.52 468.10 112.54 C 468.06 117.55 468.25 122.57 467.99 127.58 C 460.53 127.46 453.07 127.58 445.61 127.52 C 445.61 122.52 445.60 117.53 445.62 112.54 Z" />
<path fill="#00aadb" opacity="1.00" d=" M 308.39 157.18 C 313.67 151.86 319.00 146.59 324.28 141.27 C 327.84 144.78 331.38 148.31 334.88 151.88 C 329.59 157.18 324.31 162.50 318.98 167.76 C 315.46 164.22 311.94 160.69 308.39 157.18 Z" />
<path fill="#00aadb" opacity="1.00" d=" M 429.28 151.87 C 432.82 148.35 436.35 144.83 439.87 141.29 C 445.18 146.58 450.48 151.88 455.77 157.19 C 452.26 160.74 448.73 164.26 445.18 167.78 C 439.87 162.48 434.57 157.19 429.28 151.87 Z" />
<path fill="#00aadb" opacity="1.00" d=" M 62.27 219.23 C 90.51 203.56 124.10 199.35 155.83 203.64 C 184.45 207.50 212.12 220.93 231.17 242.89 C 251.50 265.80 261.12 296.65 261.75 326.94 C 261.46 331.16 263.94 334.73 265.52 338.45 C 269.99 348.31 274.60 358.10 279.00 368.00 C 283.71 378.74 283.61 392.42 275.77 401.70 C 269.00 410.00 258.09 412.43 248.78 416.74 C 248.40 427.18 248.29 437.62 247.80 448.05 C 247.09 460.83 236.00 472.22 223.08 472.60 C 213.57 472.70 204.05 472.45 194.53 472.42 C 194.51 485.61 194.53 498.80 194.52 512.00 L 136.37 512.00 C 136.37 507.00 136.37 502.01 136.37 497.01 C 150.75 496.98 165.14 497.02 179.52 496.99 C 179.54 483.75 179.51 470.51 179.54 457.27 C 193.70 457.39 207.86 457.60 222.02 457.61 C 227.65 457.63 232.44 452.64 232.80 447.14 C 233.52 433.58 233.41 419.99 234.21 406.43 C 241.45 403.74 248.47 400.50 255.64 397.63 C 259.63 395.99 263.91 393.82 265.81 389.70 C 268.38 384.18 267.05 377.72 264.57 372.41 C 259.02 360.31 253.51 348.18 247.91 336.10 C 246.32 332.95 247.00 329.32 246.74 325.94 C 245.88 298.53 236.85 270.55 217.72 250.39 C 199.10 230.28 172.10 219.48 145.08 217.54 C 112.41 214.90 77.57 222.53 52.32 244.35 C 31.21 262.14 18.73 288.74 15.91 315.98 C 12.95 340.26 17.04 365.54 28.87 387.07 C 34.77 398.02 42.49 407.93 51.44 416.56 C 62.04 426.66 70.81 439.07 74.83 453.28 C 79.06 467.45 78.07 482.39 78.21 496.99 C 92.59 497.02 106.98 496.98 121.36 497.01 C 121.38 502.00 121.37 507.00 121.37 512.00 L 63.21 512.00 C 62.97 497.38 63.80 482.72 62.53 468.14 C 61.09 452.46 52.67 438.23 41.30 427.63 C 20.06 407.48 5.50 380.27 1.39 351.21 C 0.78 346.90 0.45 342.56 0.00 338.24 L 0.00 325.83 C 0.88 310.80 3.32 295.76 8.69 281.65 C 18.34 255.32 37.72 232.77 62.27 219.23 Z" />
<path fill="#00aadb" opacity="1.00" d=" M 56.13 284.93 C 59.67 281.39 63.20 277.86 66.73 274.33 C 72.06 279.60 77.34 284.92 82.64 290.22 C 79.11 293.76 75.57 297.30 72.03 300.83 C 66.72 295.53 61.42 290.23 56.13 284.93 Z" />
<path fill="#00aadb" opacity="1.00" d=" M 177.02 290.25 C 182.31 284.94 187.62 279.64 192.92 274.35 C 196.48 277.87 200.01 281.40 203.53 284.96 C 198.22 290.25 192.96 295.59 187.61 300.85 C 184.09 297.30 180.56 293.78 177.02 290.25 Z" />
<path fill="#00aadb" opacity="1.00" d=" M 96.25 292.24 C 105.12 282.16 118.67 276.39 132.10 277.17 C 145.54 277.70 158.47 284.81 166.28 295.73 C 174.76 307.24 177.15 322.93 172.49 336.45 C 169.07 346.77 161.66 355.53 152.37 361.10 C 152.23 366.72 152.68 372.36 152.08 377.96 C 150.69 388.60 140.75 397.19 130.02 397.07 C 119.20 397.35 109.08 388.73 107.65 378.00 C 107.05 372.36 107.53 366.67 107.35 361.01 C 96.68 354.79 88.65 344.13 86.00 332.03 C 82.75 318.14 86.69 302.83 96.25 292.24 M 123.57 292.76 C 119.37 293.66 115.38 295.48 111.94 298.05 C 100.41 306.33 96.44 323.21 103.18 335.73 C 109.51 348.65 125.82 355.39 139.40 350.49 C 153.78 345.97 162.93 329.57 158.99 314.96 C 155.61 299.63 138.87 289.07 123.57 292.76 M 122.38 366.47 C 122.51 370.01 121.94 373.66 122.83 377.13 C 124.40 382.05 131.35 383.72 134.98 380.03 C 138.68 376.54 137.00 370.96 137.36 366.48 C 132.39 367.20 127.34 367.22 122.38 366.47 Z" />
<path fill="#00aadb" opacity="1.00" d=" M 43.89 314.59 C 51.39 314.57 58.88 314.57 66.38 314.59 C 66.40 319.58 66.39 324.57 66.39 329.57 C 58.91 329.61 51.44 329.55 43.96 329.60 C 43.81 324.59 43.91 319.59 43.89 314.59 Z" />
<path fill="#00aadb" opacity="1.00" d=" M 193.36 329.57 C 193.34 324.57 193.34 319.58 193.35 314.58 C 200.85 314.58 208.35 314.56 215.85 314.59 C 215.85 319.59 215.87 324.58 215.84 329.58 C 208.35 329.58 200.85 329.59 193.36 329.57 Z" />
<path fill="#00aadb" opacity="1.00" d=" M 375.64 339.94 C 380.63 339.92 385.63 339.93 390.62 339.93 C 390.64 374.97 390.63 410.01 390.63 445.05 C 369.61 445.09 348.60 445.05 327.58 445.07 C 330.36 447.86 333.16 450.63 335.93 453.43 C 332.43 456.99 328.87 460.50 325.35 464.04 C 316.50 455.26 307.78 446.36 298.87 437.65 C 307.55 428.64 316.53 419.90 325.36 411.03 C 328.88 414.56 332.43 418.08 335.93 421.63 C 333.14 424.45 330.31 427.25 327.51 430.06 C 343.55 430.07 359.59 430.07 375.63 430.06 C 375.64 400.02 375.62 369.98 375.64 339.94 Z" />
<path fill="#00aadb" opacity="1.00" d=" M 56.13 359.19 C 61.41 353.86 66.74 348.59 72.02 343.27 C 75.58 346.78 79.11 350.32 82.63 353.87 C 77.33 359.18 72.04 364.48 66.73 369.76 C 63.20 366.23 59.68 362.69 56.13 359.19 Z" />
<path fill="#00aadb" opacity="1.00" d=" M 177.02 353.88 C 180.57 350.35 184.09 346.81 187.63 343.28 C 192.94 348.56 198.23 353.86 203.52 359.17 C 200.01 362.72 196.47 366.26 192.91 369.78 C 187.61 364.48 182.30 359.19 177.02 353.88 Z" />
</g>
</svg>
