<?xml version="1.0" encoding="UTF-8" ?>
<!DOCTYPE svg PUBLIC "-//W3C//DTD SVG 1.1//EN" "http://www.w3.org/Graphics/SVG/1.1/DTD/svg11.dtd">
<svg width="512pt" height="512pt" viewBox="0 0 512 512" version="1.1" xmlns="http://www.w3.org/2000/svg">
<g id="#00aadbff">
<path fill="#00aadb" opacity="1.00" d=" M 55.63 41.60 C 63.14 32.92 74.50 27.77 85.99 27.88 C 198.63 27.85 311.27 27.88 423.91 27.86 C 429.92 27.84 436.06 27.62 441.89 29.33 C 454.44 32.71 464.91 42.66 469.07 54.95 C 470.91 60.08 471.34 65.58 471.29 70.99 C 471.26 81.64 471.28 92.28 471.27 102.93 C 477.45 103.27 483.93 101.98 489.88 104.15 C 496.23 106.59 500.51 113.23 500.28 120.02 C 500.28 141.34 500.32 162.67 500.26 183.99 C 500.36 191.29 495.06 198.17 488.02 199.99 C 482.50 201.19 476.78 200.36 471.19 200.61 C 471.21 281.41 471.19 362.22 471.20 443.02 C 471.37 452.47 468.25 461.97 462.23 469.30 C 454.78 478.66 442.96 484.29 430.99 484.19 C 315.68 484.19 200.36 484.23 85.05 484.17 C 67.47 484.16 51.07 471.08 46.96 454.03 C 45.52 448.56 45.65 442.87 45.69 437.27 C 50.63 437.26 55.57 437.26 60.51 437.27 C 60.29 444.21 60.37 451.66 64.43 457.62 C 68.48 464.02 75.51 468.53 83.08 469.21 C 86.72 469.56 90.37 469.37 94.01 469.40 C 206.33 469.39 318.64 469.41 430.95 469.39 C 444.60 469.81 456.80 457.56 456.37 443.93 C 456.40 362.82 456.37 281.71 456.38 200.60 C 449.94 200.60 443.50 200.60 437.06 200.60 C 437.06 281.74 437.06 362.87 437.06 444.01 C 437.66 448.58 433.79 452.95 429.13 452.57 C 316.77 452.65 204.40 452.55 92.04 452.63 C 88.55 452.56 84.32 453.14 81.77 450.17 C 78.75 446.76 80.11 441.79 79.83 437.66 C 193.99 437.83 308.16 437.69 422.33 437.73 C 422.32 358.71 422.33 279.69 422.32 200.67 C 411.53 200.70 400.73 200.61 389.93 200.69 C 388.50 200.49 387.42 201.49 386.38 202.27 C 373.60 212.86 360.71 223.32 347.91 233.88 C 346.00 235.48 343.65 236.97 341.04 236.55 C 337.27 236.25 334.43 232.64 334.56 228.96 C 334.40 219.53 334.56 210.10 334.51 200.67 C 329.99 200.75 325.17 200.38 321.43 197.56 C 317.07 194.53 314.34 189.34 314.36 184.03 C 314.29 169.31 314.37 154.59 314.33 139.87 C 241.13 139.87 167.92 139.87 94.72 139.87 C 94.72 178.85 94.72 217.82 94.72 256.80 C 89.78 256.80 84.84 256.80 79.91 256.80 C 79.91 215.53 79.87 174.27 79.92 133.00 C 79.51 128.54 83.56 124.60 88.00 125.08 C 163.41 125.05 238.82 125.08 314.23 125.06 C 314.28 120.94 313.91 116.59 315.76 112.75 C 318.35 106.85 324.59 102.83 331.05 102.96 C 372.82 102.90 414.60 102.95 456.38 102.93 C 456.38 91.61 456.38 80.29 456.38 68.97 C 457.22 55.04 444.91 42.20 430.92 42.68 C 315.94 42.66 200.95 42.66 85.97 42.68 C 72.39 42.25 60.14 54.39 60.52 67.99 C 60.49 130.92 60.51 193.86 60.51 256.79 C 55.57 256.80 50.63 256.80 45.69 256.80 C 45.69 194.18 45.69 131.57 45.69 68.96 C 45.51 59.02 49.01 49.04 55.63 41.60 Z" />
<path fill="#00aadb" opacity="1.00" d=" M 390.20 69.95 C 390.48 64.96 396.57 61.66 400.90 64.16 C 403.81 66.00 405.96 68.76 408.41 71.14 C 410.94 68.76 413.13 65.92 416.11 64.07 C 420.46 61.73 426.42 65.05 426.67 70.00 C 427.14 75.24 421.93 78.17 418.91 81.61 C 421.38 84.34 424.57 86.63 426.14 90.05 C 427.99 94.71 423.90 100.34 418.89 99.89 C 414.18 99.53 411.63 94.89 408.38 92.07 C 404.93 95.04 402.12 100.20 396.95 99.88 C 391.84 99.70 388.40 93.42 391.05 89.03 C 392.95 86.19 395.66 84.03 397.98 81.56 C 394.93 78.13 389.69 75.21 390.20 69.95 Z" />
<path fill="#00aadb" opacity="1.00" d=" M 101.20 67.32 C 108.04 66.16 115.10 67.08 122.02 66.79 C 125.29 66.39 128.98 68.45 129.19 72.00 C 129.49 78.64 129.30 85.32 129.30 91.97 C 129.54 95.08 127.22 98.30 123.97 98.38 C 118.30 98.64 112.63 98.36 106.96 98.50 C 104.38 98.42 101.29 98.74 99.37 96.63 C 97.31 94.67 97.73 91.59 97.63 89.02 C 97.74 83.68 97.54 78.33 97.71 73.00 C 97.61 70.62 98.98 68.25 101.20 67.32 Z" />
<path fill="#00aadb" opacity="1.00" d=" M 162.17 67.20 C 167.73 66.28 173.42 67.05 179.03 66.77 C 182.70 66.75 187.78 66.17 189.47 70.36 C 190.62 75.80 189.68 81.47 190.01 87.00 C 189.82 90.32 190.80 94.44 188.02 96.96 C 186.16 98.78 183.40 98.42 181.04 98.50 C 175.36 98.36 169.68 98.65 164.01 98.37 C 161.10 98.36 158.49 95.86 158.42 92.94 C 158.22 86.30 158.32 79.64 158.37 72.99 C 158.28 70.50 159.78 68.02 162.17 67.20 Z" />
<path fill="#00aadb" opacity="1.00" d=" M 333.47 74.64 C 342.26 73.89 351.15 74.57 359.98 74.32 C 363.65 74.53 367.93 73.49 371.02 76.05 C 374.42 78.73 374.54 84.40 371.20 87.18 C 369.01 89.29 365.78 89.04 362.98 89.10 C 353.95 88.99 344.92 89.16 335.90 89.03 C 332.27 89.23 328.78 86.49 328.26 82.88 C 327.59 79.34 329.96 75.51 333.47 74.64 Z" />
<path fill="#00aadb" opacity="1.00" d=" M 137.37 172.53 C 147.55 171.89 157.79 172.48 167.99 172.25 C 171.56 172.39 175.83 171.56 178.66 174.34 C 181.84 177.17 181.67 182.72 178.29 185.33 C 176.02 187.35 172.77 187.00 169.95 187.10 C 159.62 186.97 149.27 187.21 138.94 186.99 C 135.53 187.02 132.36 184.38 131.79 181.01 C 130.98 177.29 133.61 173.22 137.37 172.53 Z" />
<path fill="#00aadb" opacity="1.00" d=" M 208.42 172.66 C 219.22 171.72 230.16 172.55 241.01 172.25 C 245.27 172.41 250.79 171.26 253.60 175.39 C 257.05 179.75 253.62 186.99 248.03 186.96 C 235.66 187.18 223.27 187.08 210.89 187.01 C 206.63 187.24 202.79 183.28 203.30 179.02 C 203.50 176.12 205.62 173.46 208.42 172.66 Z" />
<path fill="#00aadb" opacity="1.00" d=" M 282.41 172.66 C 287.57 171.87 292.86 172.32 298.07 172.32 C 301.46 172.23 304.69 174.69 305.37 178.04 C 306.42 182.09 303.29 186.63 299.08 186.91 C 294.02 187.21 288.94 187.19 283.88 186.92 C 280.34 186.71 277.35 183.48 277.28 179.96 C 277.08 176.74 279.30 173.55 282.41 172.66 Z" />
<path fill="#00aadb" opacity="1.00" d=" M 137.38 208.45 C 146.27 207.91 155.21 208.26 164.12 208.26 C 168.59 208.07 172.37 212.60 171.37 216.97 C 170.79 220.40 167.51 223.02 164.05 222.90 C 156.04 223.00 148.03 222.92 140.03 222.94 C 136.91 223.16 133.61 221.66 132.32 218.71 C 130.31 214.69 132.91 209.23 137.38 208.45 Z" />
<path fill="#00aadb" opacity="1.00" d=" M 191.38 208.54 C 199.85 207.58 208.45 208.42 216.98 208.12 C 221.08 208.29 226.31 207.16 229.14 210.99 C 232.76 215.19 229.62 222.62 224.02 222.77 C 214.34 223.02 204.65 222.79 194.96 222.88 C 191.89 223.08 188.55 221.80 187.17 218.89 C 185.04 215.09 187.19 209.75 191.38 208.54 Z" />
<path fill="#00aadb" opacity="1.00" d=" M 260.38 208.46 C 268.86 207.67 277.44 208.38 285.95 208.12 C 290.00 208.25 295.17 207.23 297.91 211.04 C 301.41 215.17 298.45 222.39 293.02 222.74 C 283.01 223.03 272.98 222.82 262.97 222.85 C 259.40 223.09 255.87 220.56 255.24 217.00 C 254.39 213.38 256.77 209.37 260.38 208.46 Z" />
<path fill="#00aadb" opacity="1.00" d=" M 136.31 245.36 C 140.10 244.35 144.09 244.92 147.97 244.80 C 152.96 244.95 157.98 244.43 162.94 245.09 C 168.08 246.02 170.35 253.02 166.87 256.88 C 164.02 260.47 158.99 259.47 154.99 259.62 C 148.93 259.34 142.79 260.13 136.79 259.19 C 130.29 257.60 130.02 247.44 136.31 245.36 Z" />
<path fill="#00aadb" opacity="1.00" d=" M 180.36 245.45 C 183.79 244.35 187.47 244.91 191.02 244.79 C 196.36 244.95 201.73 244.47 207.06 245.04 C 211.32 245.68 214.07 250.67 212.50 254.66 C 211.48 257.75 208.29 259.67 205.10 259.57 C 198.07 259.64 191.04 259.63 184.01 259.58 C 181.01 259.68 177.93 258.12 176.71 255.29 C 174.96 251.73 176.71 247.01 180.36 245.45 Z" />
<path fill="#00aadb" opacity="1.00" d=" M 225.20 245.26 C 229.71 244.21 234.41 244.91 239.00 244.74 C 243.33 244.85 247.71 244.37 252.01 245.07 C 256.99 246.19 259.10 252.98 255.71 256.77 C 252.93 260.36 247.94 259.34 243.99 259.48 C 237.71 259.15 231.30 260.13 225.10 258.94 C 219.01 256.91 219.09 247.21 225.20 245.26 Z" />
<path fill="#00aadb" opacity="1.00" d=" M 269.28 245.40 C 273.71 244.11 278.43 244.95 282.99 244.74 C 287.62 244.90 292.34 244.26 296.91 245.19 C 301.77 246.59 303.43 253.33 300.01 256.96 C 297.33 260.22 292.73 259.37 289.02 259.49 C 282.69 259.22 276.30 259.96 270.01 259.10 C 263.75 257.47 263.26 247.71 269.28 245.40 Z" />
<path fill="#00aadb" opacity="1.00" d=" M 314.18 245.23 C 320.34 244.12 326.69 245.02 332.93 244.71 C 336.88 244.85 341.83 243.90 344.64 247.44 C 348.30 251.49 345.46 258.95 339.95 259.33 C 332.33 259.64 324.68 259.43 317.06 259.44 C 313.79 259.62 310.61 257.45 309.71 254.28 C 308.51 250.70 310.60 246.45 314.18 245.23 Z" />
<path fill="#00aadb" opacity="1.00" d=" M 358.26 245.34 C 361.38 244.36 364.73 244.81 367.96 244.72 C 373.31 244.85 378.67 244.50 384.01 244.87 C 387.99 245.06 391.15 249.08 390.53 253.00 C 390.15 256.67 386.73 259.63 383.03 259.44 C 375.70 259.49 368.37 259.53 361.04 259.42 C 357.79 259.50 354.75 257.12 354.00 253.98 C 353.02 250.56 354.96 246.64 358.26 245.34 Z" />
<path fill="#00aadb" opacity="1.00" d=" M 36.20 279.24 C 62.09 278.83 88.02 279.18 113.92 279.07 C 169.96 279.06 226.00 279.07 282.03 279.06 C 291.53 278.85 300.91 283.95 305.87 292.05 C 308.90 296.78 310.18 302.43 310.08 308.01 C 310.05 334.35 310.09 360.69 310.06 387.03 C 310.29 398.12 303.15 408.85 292.84 412.93 C 287.54 415.30 281.63 415.05 275.96 415.01 C 196.97 414.98 117.98 415.03 38.98 414.98 C 28.50 415.02 18.44 408.40 14.17 398.86 C 12.08 394.55 11.55 389.69 11.62 384.95 C 11.69 358.64 11.57 332.32 11.67 306.01 C 11.66 292.59 22.86 280.44 36.20 279.24 M 60.11 314.00 C 58.39 314.63 58.76 316.55 58.64 318.00 C 58.64 337.68 58.67 357.36 58.62 377.04 C 58.73 378.59 58.34 381.11 60.38 381.55 C 64.14 381.92 67.97 381.90 71.74 381.56 C 73.42 381.39 73.55 379.34 73.54 378.04 C 73.58 370.35 73.52 362.66 73.52 354.97 C 73.56 352.05 73.64 348.89 75.39 346.42 C 78.17 342.29 84.23 341.52 88.49 343.63 C 91.85 345.41 93.06 349.46 93.06 353.03 C 93.24 361.73 92.91 370.44 93.16 379.13 C 93.17 382.75 97.68 381.51 100.01 381.79 C 102.61 381.33 106.67 382.95 108.12 380.00 C 108.59 374.03 108.15 368.02 108.30 362.04 C 108.15 355.30 109.04 348.19 106.24 341.84 C 104.08 336.71 99.38 332.78 93.94 331.59 C 86.69 329.81 78.71 332.04 73.65 337.58 C 73.72 331.04 73.70 324.50 73.71 317.97 C 73.63 316.58 73.87 314.32 72.03 313.99 C 68.07 313.62 64.06 313.63 60.11 314.00 M 124.68 314.88 C 123.88 320.48 124.59 326.21 124.35 331.86 C 121.25 332.29 117.26 330.73 114.78 333.08 C 114.50 336.15 113.78 339.78 115.27 342.58 C 117.97 343.98 121.37 343.00 124.35 343.27 C 124.42 350.55 124.24 357.83 124.43 365.11 C 124.57 370.56 126.80 376.45 131.82 379.17 C 137.89 382.48 145.12 381.84 151.78 381.58 C 154.30 381.12 153.53 377.86 153.75 376.02 C 153.51 374.17 154.25 371.75 152.66 370.38 C 149.21 369.38 145.49 370.41 142.00 369.58 C 139.29 368.71 138.74 365.47 138.61 363.02 C 138.45 356.40 138.55 349.78 138.61 343.17 C 143.00 343.13 147.46 343.74 151.79 342.89 C 153.50 339.93 153.50 335.17 151.78 332.20 C 147.42 331.47 142.96 332.01 138.56 331.88 C 138.39 326.40 138.86 320.89 138.36 315.43 C 137.99 313.42 135.52 313.83 134.04 313.70 C 131.00 314.06 127.14 312.71 124.68 314.88 M 250.10 314.05 C 248.57 314.81 248.87 316.60 248.77 318.01 C 248.78 337.69 248.81 357.37 248.76 377.05 C 248.91 378.59 248.44 380.93 250.38 381.53 C 253.88 381.95 257.44 381.83 260.95 381.63 C 262.78 381.65 263.24 379.56 263.13 378.11 C 263.17 358.40 263.09 338.69 263.17 318.99 C 262.98 317.32 263.58 315.12 261.90 314.07 C 257.99 313.58 254.00 313.60 250.10 314.05 M 175.65 337.26 C 175.23 335.55 176.20 332.67 173.90 332.08 C 170.34 331.66 166.70 331.66 163.15 332.13 C 161.46 333.16 162.08 335.36 161.88 337.00 C 161.99 351.04 161.78 365.08 161.97 379.12 C 162.01 382.81 166.64 381.51 169.01 381.79 C 171.43 381.53 176.20 382.81 176.11 378.98 C 176.38 369.68 175.97 360.37 176.26 351.08 C 176.25 347.12 178.94 343.11 183.07 342.66 C 187.45 341.65 191.94 344.98 192.26 349.45 C 193.06 359.58 192.08 369.79 192.73 379.93 C 193.70 382.80 197.66 381.40 199.98 381.80 C 202.26 381.57 206.75 382.66 206.67 379.08 C 206.92 370.08 206.58 361.07 206.78 352.06 C 206.84 349.16 207.63 345.98 210.01 344.09 C 213.03 341.93 217.66 341.95 220.45 344.50 C 222.72 346.70 223.12 350.03 223.17 353.03 C 223.26 361.38 223.11 369.73 223.19 378.09 C 223.18 379.43 223.26 381.52 225.07 381.59 C 228.57 381.87 232.12 381.94 235.61 381.54 C 237.55 380.95 237.19 378.55 237.32 376.99 C 237.25 368.01 237.42 359.03 237.22 350.06 C 237.11 343.39 234.30 336.13 228.06 332.97 C 220.00 328.59 209.20 331.59 204.20 339.19 C 198.85 328.63 182.72 328.42 175.65 337.26 Z" />
<path fill="#00aadb" opacity="1.00" d=" M 332.26 300.35 C 334.69 299.31 337.40 299.65 339.98 299.57 C 350.97 299.71 361.98 299.44 372.97 299.69 C 377.51 299.70 380.96 304.67 379.59 308.96 C 378.73 312.27 375.39 314.52 372.00 314.31 C 360.33 314.38 348.66 314.30 336.99 314.34 C 334.26 314.45 331.24 313.75 329.62 311.36 C 326.85 307.90 328.20 302.16 332.26 300.35 Z" />
<path fill="#00aadb" opacity="1.00" d=" M 334.44 335.59 C 343.27 335.25 352.13 335.61 360.97 335.44 C 363.94 335.53 367.37 334.99 369.81 337.12 C 373.20 339.73 373.39 345.31 370.23 348.18 C 367.83 350.61 364.15 350.14 361.05 350.23 C 352.36 350.07 343.66 350.40 334.97 350.09 C 331.29 349.98 328.15 346.62 328.17 342.97 C 328.00 339.40 330.84 335.92 334.44 335.59 Z" />
<path fill="#00aadb" opacity="1.00" d=" M 391.31 336.32 C 394.01 335.07 397.21 335.21 400.06 335.89 C 404.16 337.16 406.16 342.39 404.13 346.13 C 401.77 350.85 395.15 351.17 390.92 349.07 C 386.16 346.41 386.39 338.67 391.31 336.32 Z" />
<path fill="#00aadb" opacity="1.00" d=" M 334.19 372.24 C 342.14 371.87 350.13 372.06 358.10 372.14 C 363.12 372.10 366.67 378.10 364.36 382.54 C 363.12 385.33 360.07 386.93 357.08 386.78 C 350.03 386.82 342.98 386.84 335.93 386.77 C 332.40 386.96 328.93 384.43 328.31 380.90 C 327.40 377.04 330.22 372.74 334.19 372.24 Z" />
<path fill="#00aadb" opacity="1.00" d=" M 377.39 372.61 C 384.19 371.61 391.18 372.26 398.05 372.22 C 403.53 372.22 406.91 379.25 403.67 383.60 C 400.93 387.90 395.31 386.74 391.02 386.88 C 386.33 386.58 381.46 387.56 376.91 386.19 C 371.01 383.93 371.39 374.47 377.39 372.61 Z" />
</g>
</svg>
